<svg xmlns="http://www.w3.org/2000/svg" enable-background="new 0 0 792 612" xml:space="preserve" viewBox="0 0 792 612" version="1.1" y="0px" x="0px">
	<g id="Area00" fill="#FFF">
		<rect width="100%" height="100%"/>
	</g>
	<g id="Area01">
		<path stroke="#000000" stroke-width="1.7248" d="m461.93 54.776c80.764 23.387 139.85 97.851 139.85 186.17 0 107.04-86.767 193.83-193.83 193.83-107.05 0-193.84-86.793-193.84-193.83 0-94.794 68.06-173.64 157.96-190.47-123.82 15.322-219.48 117.02-219.48 240.2 0 133.78 112.81 242.22 251.99 242.22 139.16 0 251.98-108.44 251.98-242.22-0.01-114.79-83.11-210.94-194.63-235.9z"/>
	</g>
	<g id="Area02">
		<path d="m164 61.194c4.266 7.5 3.612 17.08 9.501 23.928 3.981 8.359 3.136 19.075 10.248 25.83 6.173 12.333 11.396 25.341 21.65 35.681 2.562 5.612 7.877 8.279 11.007 13.31 5.791 1.414 9.209 5.877 14.063 9.489 4.264-0.08 9.104-1.803 12.149 1.518 2.554 1.525 5.592 1.987 8.735 2.272 4.74 2.099 10.346 1.908 14.809 4.568l15.569-0.389c2.088-1.988 5.13-2.846 7.97-1.889 2.377 1.228 4.847 3.79 7.224 5.691 9.111 1.611 17.655 2.562 26.958 2.661 2.463-1.235 4.18-3.427 5.692-5.314 3.042-0.489 5.223-0.291 6.839-3.421 1.242-4.271 4.471-7.686 6.068-11.779 9.217-7.871 19.663-15.86 31.527-18.989 1.611-2.469 5.223 0.845 7.224-0.753 2.655-0.291 6.643-1.043 10.241-0.752-0.086 0.37 0.191 0.561 0.39 0.752 3.129-1.419 6.635-3.513 11.013-2.655 0.753-1.901 3.32-0.964 4.562-2.277 6.733-1.709 10.914 2.833 16.704 3.414-0.574 1.327 0.951 1.795 1.525 2.661 6.643 0.456 12.433-2.37 18.606-1.895 2.277 1.783 3.89 3.506 7.211 4.159 1.333 1.624 3.136 2.951 5.314 4.187-1.143 2.278 2.376 0.753 3.037 2.278-0.476 0.099-1.221-0.277-1.513 0.376 0.95 0.957 1.618 3.513 3.797 3.043l0.376-0.376-2.277-1.908c1.525 0.092 2.277 1.803 3.426 2.661l-0.388 0.376c4.562 1.328 8.92 4.946 14.057 5.699 3.328 1.057 2.654 5.705 6.081 5.705 3.215 3.13 4.16 6.833 7.969 9.118 6.451 3.6 12.044 6.92 18.231 11.377 4.271-0.555 8.259 2.859 11.766-0.377 1.814-2.839 2.186-4.932 3.035-8.339 3.229-2.39 6.38-3.526 10.256-1.901-0.094 0.567 0.481 0.752 0.758 1.135 7.118 1.321 14.249-4.18 22.033-1.135 0.943 2.363 3.507 0.277 5.314 0.369 3.507-2.945 7.879-3.698 12.527-3.79 10.359-4.087 23.082-2.377 32.293-9.118 6.734-1.618 11.02-7.019 17.088-10.254 6.45-7.223 14.995-11.581 18.99-19.742 6.549-8.365 8.066-18.897 12.531-28.114 1.319-4.173 0.377-9.303 2.276-13.284-0.672-0.376-0.282 1.987-0.383 3.037l0.383 0.37c2.477-2.364 1.521-6.55 2.279-9.111-3.045-6.551 2.468-13.008 1.142-20.508 0.753-1.42 1.326-3.038 2.66-4.18 8.069 7.507 6.458 19.577 9.106 29.632 1.624 12.724 5.406 28.193-0.376 40.25-2.562 15.958-3.316 32.558-11.021 46.343-2.271 8.914-10.148 15.464-12.533 24.285-8.634 13.582-21.075 23.651-34.927 31.152-4.371-2.563-5.988 3.617-9.495 4.178l-67.993 20.502c-3.6 0.098-6.346 2.469-9.488 3.796l-4.938 7.223c-3.235 9.389 9.97 12.908 6.073 21.657 1.328 6.345 3.803 12.716 2.285 19.735l-7.593 20.885c-5.506 7.217-10.545 15.106-17.847 21.268-7.401 11.409-10.062 24.693-14.823 37.212l1.148 23.176c-7.402 7.031-13.859 13.482-15.946 22.792-1.24 3.506-5.135 3.988-7.216 7.196-6.557 8.182-13.772 16.917-12.914 28.497-1.81 9.502-1.243 20.032-1.908 30.004-2.932 12.445-3.6 26.107-15.187 34.571-0.951 2.832-4.074 5.222-6.458 7.196-1.702 0.185-3.129-0.462-4.172-1.89-4.643 0.286-7.408-3.895-11.773-0.766-1.803 1.803-4.95 2.562-7.223 1.15-4.266-1.15-3.981-9.019-9.489-6.841-1.525 3.883-4.845 1.037-7.222 0.369-6.55-8.067-11.866-16.506-14.427-26.198 0.482-16.321-5.882-29.806-11.389-43.671-2.087-6.259-3.612-12.723-4.564-19.372-10.914-13.482-11.005-31.416-22.026-44.806-2.363-8.451-4.364-16.995-8.359-24.681-1.518-2.575-4.74-1.241-6.839-2.668-7.304-2.562-10.339-9.863-15.939-15.186-2.662-15.101-13.298-27.823-26.583-36.459 1.235-9.409-7.124-15.769-3.038-25.447 1.896-7.025 5.316-13.483 7.21-20.508 0.476-5.798-0.29-9.97-3.79-13.667-2.19-2.859-6.271-0.865-8.735-3.051-2.952-3.512-5.427-8.069-10.631-8.345l-4.178-4.187c-26.781-13.667-56.116-22.7-77.093-48.603-10.068-11.304-15.39-24.687-24.311-36.452-3.994-5.323-3.611-12.552-5.691-18.626-3.81-10.822-3.049-23.439-5.321-34.935-5.032-8.637-1.611-20.217-1.532-30.002 3.624-8.346 2.952-19.081 11.416-24.674 3.56-1.339 5.76 2.273 7.19 4.55zM159.82 62.343 159.82 62.343 159.82 62.343 159.82 62.343"/>
		<path d="m159.82 62.343c-0.674 0-1.05 0.752-1.519 1.135-0.105 0.377 0.179 0.568 0.37 0.753h1.149c0.086 0.568-0.859 1.135 0 1.519 0.548 0.092 1.221-0.092 1.135-0.759v-1.136c0.476 0 0.951 0.085 1.142-0.377 0.66 1.13-1.432 3.031 0.383 4.174l1.128-1.143c0.1 1.803 1.235 4.087 1.902 6.082-0.852 0-1.803-0.198-2.278 0.766 1.704 1.703-0.561 4.265 3.031 3.776 2.952 2.958-1.896 4.279-3.407 5.705 1.988 0.488 3.982 2.1 5.691 1.901 1.81 2.754 0.859 6.735 3.797 9.112-0.462 0.476-1.142 0.476-1.525 1.149 1.908 0.951 3.413 2.562 3.81 4.569l0.376 3.018c2.562-0.086-0.376 2.37 2.277 2.661l-1.134 1.149c0.851 0.568 1.709 0.185 1.895 1.505-0.76-0.085-1.71 0.298-2.285-0.376-1.525 0.574-0.086 1.433 0 2.285 1.717 0.567 1.142 3.03 3.421 3.419-0.383 1.506 0.667 4.747 1.901 5.685 0.667-0.285 0.285-1.037 0.39-1.505 0.086 1.029 0.462 1.795 1.512 2.661-0.667-0.297-1.05 0.383-1.512 0.753 0.944 0.574 1.611 1.994 3.031 1.512 0 2.377 2.37 3.705 1.505 6.457 2.198 0.674 2.389 3.427 4.186 4.933 1.703 8.279 10.352 11.692 14.433 18.989 4.556-0.086 5.982 5.13 8.353 7.982 4.371 1.901 5.415 7.223 10.253 7.976 2.278 1.717 1.618 2.278 2.662 4.55 3.042-3.79 4.462 2.099 7.605 2.291 1.415-0.853 3.315-1.624 4.934-0.766 3.512 2.186 8.055 1.716 11.772 3.426 2.753-1.148 8.075 0.192 10.24 1.896l4.953 0.766-0.383 0.37 1.903 1.901c-0.397-0.766-1.044 0.079-1.52 0.376 1.228 2.47 4.172 0.667 6.458 2.278 0.086 0.383-0.205 0.574-0.383 0.752-2.767-0.654-5.805-1.802-8.354-1.895-1.518-0.667-2.766-3.322-4.549-2.278-0.105 0.766 0.079 1.427 0.753 1.901 0.752 0.093-0.958-0.29-1.142 0.377 1.894 0.958 1.227 1.241 1.894 3.043h3.796c0 0.475-0.661 0.661-1.129 0.759l-0.389-0.376c-1.419 0.858-4.074 1.611-6.082 0.752v-1.519c-3.129 0.951-7.302-0.086-9.87-1.901-1.235-0.093-3.038-0.371-3.038-1.896 0.192 0.191 0.383 0.469 0.759 0.383 0.186-0.192 0.469-0.383 0.376-0.759-1.987-0.185-4.647-0.766-4.932 1.901-0.95-0.197-1.901-0.296-2.667-0.766l3.05-0.376-1.142-1.901c0.759-0.1 1.81 0.29 2.279-0.377 0.084-1.426-2.279-0.475-2.279-0.753-1.235-1.426-2.853-3.526-5.31-2.661l-0.759 1.513-2.674-1.135c-1.029 3.512 4.945 2.363 4.562 4.931-2.37-0.475-3.797-3.413-6.834-2.277l-2.284-1.519c0 0.951-0.277 2.087-0.369 3.42-1.618-1.519-2.186-4.172-4.953-4.555l-1.129 1.135c-0.29 0.476-0.29 0 0.376-0.383-0.092-1.704-1.518 0.469-2.277-0.752-3.889-2.087-9.013-5.982-9.871-10.631-2.371-1.625-3.229-5.051-5.316-4.569 1.236-0.853-0.092-2.469-0.758-3.408-1.525-0.105-1.71-1.624-2.278-2.667-0.489 0.489-0.489 1.142-1.149 1.525 0.575 0.759 0.66 1.618 1.902 1.512-1.328-0.562-0.668 2.377 0 2.667-0.469 0.178-1.143 0.462-2.279 0.37-0.852-1.611-1.135-4.081-3.031-4.55 0.377-0.68-0.481-2.092-1.525-2.277 1.81-1.994 0.086-2.179-1.142-4.193-1.036 0.297-0.944 1.063-2.279 0.773 0-3.711-4.548-3.513-4.548-7.217-1.803-1.433-2.377-4.377-4.556-5.691 0.845-1.433 1.604-4.562 0.752-6.087 0.39 0.105 0.569-0.179 0.753-0.383-1.037-1.506-3.215 0.105-3.407-2.265 0.191-0.575 0.468-1.149 0.37-1.909-2.264-0.277-1.513-3.69-4.166-3.796 0.462-1.519 0.276-3.604-0.76-4.932-1.34-0.482-2.376-0.105-3.796-0.753 2.753-0.772-0.667-3.334 1.505-4.562l-0.759-1.531c0.488-1.797 3.241 0.488 2.284-1.889-0.574-0.099 1.05-1.043-0.376-1.519-1.419 0.277-3.321-0.95-4.18-2.668 0-0.468 0.093-0.937-0.383-1.135h-0.752c0.476-0.667 0.476-1.419-0.39-1.888 1.142-1.347 1.05-3.044 0.766-4.18-0.574-0.198-1.135-0.481-1.895-0.389-1.05 0.667-0.958 1.809-2.285 1.902-0.469-1.043-2.284-1.137-0.752-1.902l0.752 0.765 1.142-1.504-0.383-0.409c0.291 0.105 0.944 1.44 1.526 0.409 0.191-0.779-0.099-2.007-1.143-1.532h-1.142l2.655-0.767c-0.099 0.383 0.198 0.569 0.39 0.767 0.661 0 1.036-0.767 1.512-1.149-3.229-1.042 1.242-6.358-3.414-5.309-0.475-1.049-2.476-0.95-1.142-2.283 1.525-0.199 3.229 0.105 3.044 1.908l0.37 0.375c0.581-0.66 1.908-1.61 2.285-2.654-2.562-0.673-5.699 0.093-7.587-2.284 1.704-1.037 0.76-3.143 0.76-4.187h-0.76c0.08-0.277 1.419-0.938 0.376-1.518l1.895-1.889c-1.512-0.383-2.086-0.383-3.421-0.383 0-1.987 3.229-1.532 1.149-3.42l-6.081 0.383-0.753-0.752c0.171 0.092 2.647 0.092 2.271-1.519v-1.149c1.512-0.766 1.901 1.711 3.031 0-1.229-0.567-0.858-2.271-0.37-3.037-1.625 0.191-2.285-1.901-4.18-1.136 1.043-1.433 2.839-0.858 4.18-1.526l-2.661-2.277 1.901-1.888c-0.481-1.242-1.716-0.587-2.661-0.766 0.086-1.519 1.988-0.199 2.661-1.136-0.28 0.113-0.37 2.113 0.77 1.935z" fill="#FFFFFF"/>
		<path d="m664.91 68.788c-0.567-0.185-1.143-1.611-0.371-2.279 0.1 0.383 1.43 1.526 0.37 2.279z" fill="#FFFFFF"/>
		<polygon points="163.61 69.553 161.72 69.17 163.24 69.17"/>
		<path d="m157.16 70.306h-1.909c0.482-0.66 1.149-0.845 1.909-0.752v0.752zM665.67 77.133 665.67 77.133 665.67 77.133 665.67 77.133" fill="#FFFFFF"/>
		<path d="m665.67 77.133l1.52 3.42 0.376-0.37c2.574 1.803-1.599 1.703-0.754 3.797 0.675 1.519-1.424 2.766 0.378 3.796-2.379 1.32-0.754 5.705-3.421 7.599 2.385 3.321-3.514 4.655-1.519 8.352-0.654 0.866 1.823 4.279-1.512 3.797-0.66 1.895-1.803 3.519-1.908 5.705 2.197-0.481 1.722 1.043 2.284 2.655-0.562 0.851-2.087 1.326-1.518 2.647-2.279-0.37-2.095 2.674-4.563 1.921 0-1.921 1.439-0.958 2.284-2.291-0.285-1.717-1.896-3.427-0.758-5.322l1.134 0.389c0.483-9.224 8.273-16.804 6.458-26.972-0.66-1.902 3.038-2.469 0.76-4.173 1.142-3.811-0.567-7.884 0-11.396-0.83 2.172 6.74 4.826 0.76 6.424z" fill="#FFFFFF"/>
		<path d="m158.3 76.763c0.469 0.965-0.766 2.477-0.383 3.421l-1.519-1.136c-0.667 0.469-1.809 2.364-3.037 1.136 1.327 0.277 2.186-0.667 3.037-1.519-0.66-1.044 0.57-2.284 1.9-1.902z" fill="#FFFFFF"/>
		<path d="m161.33 80.184c0 0.667-0.754 1.042-1.136 1.519h-1.519l1.149-1.149-0.39-0.37h1.9z" fill="#FFFFFF"/>
		<path d="m156.4 81.702c-0.759-0.185-1.34 1.901-2.661 1.135 0.29-0.95 1.81-0.752 2.66-1.135z" fill="#FFFFFF"/>
		<path d="m670.22 86.258c0.112 0.766-0.078 1.427-0.752 1.901v-1.901h0.75z" fill="#FFFFFF"/>
		<path d="m159.43 87.777c-0.66 0.667-1.802 0.276-2.641 0.382v-0.765c0.66 0.659 1.79 0.291 2.64 0.383z" fill="#FFFFFF"/>
		<path d="m155.25 87.777c-0.085 0.667-1.228 0.276-1.888 0.382 0.85 0.489 1.05-0.851 1.89-0.382z" fill="#FFFFFF"/>
		<path d="m160.58 91.963c-0.204 0.264-0.751 1.043-1.512 0.752l0.76-1.512 0.75 0.76z" fill="#FFFFFF"/>
		<path d="m164 92.715c-0.383 0.475-0.944 0.766-0.759 1.525-1.988-0.482 0.759-2.186-1.136-3.037 0.38 0.271 1.14 1.42 1.9 1.512z" fill="#FFFFFF"/>
		<path d="m669.47 97.654c0.199 0.568-0.474 0.753-0.758 1.136-0.192-0.476-0.654-0.383-1.143-0.383 0.76 0.099 0.95-1.235 1.9-0.753z" fill="#FFFFFF"/>
		<path d="m665.67 100.31c0.297 0.95-0.859 1.611-1.519 1.902-0.383 0-0.852 0.099-1.136-0.377 0.39-0.95 1.72-1.33 2.66-1.52z" fill="#FFFFFF"/>
		<path d="m172.35 105.25c0.105-0.37-0.185-0.568-0.376-0.76l0.759-0.759 1.142 1.519h-1.52z"/>
		<path d="m178.05 121.96l0.752 2.277-0.75-2.28z"/>
		<path d="m658.46 126.14c-2.376 1.994-2.186 6.358-6.08 6.457v0.383c-0.383 0-0.852 0.092-1.142-0.383 0.39-2.562 4.945-3.896 3.796-7.223l1.149-1.519c-0.1 2.09 2.84-0.01 2.27 2.28z" fill="#FFFFFF"/>
		<path d="m652.76 134.49c-0.766 1.142-1.328 2.476-3.045 2.277-0.845-1.05-0.079-2.277 0.767-3.043 0.85-0.01 1.8-0.18 2.27 0.76z" fill="#FFFFFF"/>
		<path d="m645.94 141.33h-1.908l2.66-3.797c-0.1 1.05 0.28 2.37-0.75 3.8z" fill="#FFFFFF"/>
		<path d="m186.41 143.61l-0.396 0.383c0.396 0.462 1.05 0.759 0.766 1.504-2.747-0.554-0.852-3.307-2.655-4.542 0.77 1.05 2.19 0.94 2.29 2.66z"/>
		<path d="m417.68 142.47c-0.185 0.178-0.47 0.383-0.377 0.753 2.469 3.407 4.938-1.519 6.84 2.271h1.903v0.76c4.264 2.383 7.116-3.031 11.005-0.37 1.328-1.611 3.988 0.086 5.316-1.525 4 0.581 7.309 3.803 11.402 5.322l1.512 2.271c-2.08-0.477-3.796-1.988-5.686-3.038l-0.772 0.766c2.009 1.241 4.754 3.328 6.834 3.42 3.144 2.562 5.705 5.599 9.885 6.457 0.759 1.611 4.173 1.414 4.932 3.038 3.222 1.506 8.174-0.383 8.359 4.556 3.605 4.179 7.502 8.359 11.772 12.532 4.081 1.704 7.495 6.266 11.773 6.457l-0.377 0.37c1.782 0.766 3.321 3.235 5.303 2.285-0.087 1.895 2.291 0.951 3.05 2.285 2.276 0.66 5.697 0.092 6.834 1.888h0.752v0.383h2.667c-0.376-0.092-0.574 0.191-0.766 0.383 2.094 0.951 4.754 1.241 6.841 1.143-0.772 2.845-3.327 5.776-6.075 7.209-3.229 2.853-3.419 7.217-7.218 9.501l0.762 1.888c-1.149 0.106-2.192 1.149-2.286 2.298 0.094 0.752-0.283 1.69 0.383 2.271 1.235-0.581 0.57-2.575 2.286-2.271 0 2.732-3.136 5.4-1.532 7.58 0.388-0.477 1.056-0.846 0.767-1.519 0.289 0.468 0.766 0.383 1.135 0.383v3.037c-0.646 0-1.037 0.752-1.514 1.135 0.867 5.13-0.474 10.539 2.662 14.057v1.506c-1.994-0.271-1.795-1.889-3.421-3.031 0.853 1.717-1.716 1.235-1.893 3.031 1.221 0.304 3.03-0.086 3.796 1.142-0.107 1.625-1.333 1.81-1.532 3.427 0.673 2.094-1.505 5.038 1.901 4.933 1.148-0.66 0.198-2.654 0.39-3.42v-1.13h0.759c-0.104 0.569 0.469 0.76 0.76 1.13l1.129-1.513-1.129-1.135c0.377-0.099 0.566 0.191 0.759 0.376-0.568-3.038 0.845-6.081 3.037-8.36h0.754c0.767 0.285-3.421 2.569-1.13 4.187 1.13-0.489 0.759-2.285 2.272-1.908 0.09 0.475-0.286 1.241 0.376 1.539 1.141-2.397 2.29-4.009 4.179-5.706 2.569 2.272-1.604 3.222-0.759 6.076-1.223 3.605-5.89-1.143-5.31 3.796-2.575 1.234-3.42 3.414-4.568 5.697 0.475 1.229 1.718 0.568 2.675 0.753 0.084 1.333-2.021 3.419 0.383 4.186 1.412-0.673-1.249-1.796 0.752-1.901 2.648-2.285 5.408-5.032 7.97-7.601-0.092 0.562 0.476 0.76 0.752 1.143-3.313 1.902-4.642 5.698-7.209 7.976 0.567 1.228 1.136 0.179 1.901 0h0.375c-2.085 2.655-6.08 2.562-9.486 3.03-1.994-0.759 0.567-3.506-1.903-2.647l-0.766-1.135c0.383 0.66 1.704 0 2.286-1.149-0.094-0.76 0.275-1.81-0.383-2.284l-1.903 0.759c-0.185-1.419-0.95-3.507-2.27-4.932-2.939 4.741-1.242 11.389 1.901 15.576 0.184-0.199 0.462-0.39 0.368-0.759h0.766c1.138 3.03 5.509 0.56 7.601 0.759h0.759c-0.383 3.796-3.802 6.266-3.802 10.254-1.52 0.753-0.187 2.759-1.137 3.795 5.032 2.47 5.791 8.644 9.118 11.78 0.285 1.79 1.043 3.308 0.74 5.314l-4.549 2.271c0.29 0.476 0.767 0.391 1.143 0.391l-0.376 0.362-0.767-0.753c-8.261 3.698-6.827 13.1-11.766 18.606l-0.766-0.745c-1.138 2.641-2.471 5.592-4.551 7.585 3.229-1.809 10.624-1.993 10.255-7.585 0.937 0.462 2.277 0.462 2.277 1.881-1.341 0.674 0.377 2.378-0.76 3.428l-1.148 2.276c2.285 0.47 4.576-2.376 6.841-1.899 1.042-0.477 0.85-1.89 0.76-2.272-0.76 0.08-1.235 1.135-2.272 0.753l-0.752-1.136c0.554-0.674 1.511-0.291 2.265-0.39l1.136 1.155c1.61-0.766 1.234-3.334 3.803-2.674-4.465 6.933-4.179 15.959-9.871 22.416 0.759 1.611-1.229 1.519-1.908 2.284-3.782 7.501-13.667 10.814-15.563 19.742-0.58 0.567-1.702 1.413-0.766 2.271-2.659 1.05-2.468 4.853-4.549 6.457-0.468 3.994-2.759 7.699-1.901 11.779-3.13 0.561 0.093 2.938-1.519 4.556-6.55 9.218-3.334 20.983-4.187 31.139-4.072 5.705-8.728 10.26-12.908 15.938-2.278 10.742-14.335 16.44-17.087 26.979-4.938 9.588-3.143 20.501-6.457 30.761 0.197 9.964-1.704 19.359-5.316 28.095 2.095 9.402-9.111 13.298-11.395 20.891-0.66 1.334-1.996 1.044-3.038 1.532-0.184-0.581-0.284-1.135-0.753-1.532-0.396 0.674-0.872 1.334-0.767 2.298-5.604-1.438-6.088-8.272-7.223-13.688 0.766-10.339-6.636-17.174-7.202-26.952-2.471-1.999 0.282-4.76-1.143-7.229-0.766-3.512-0.378-6.074 1.143-9.104l1.127 1.129 0.391-0.369c1.234 0.95-1.044 4.165 1.889 4.548 0.673 1.803 2.006 4.273 0.39 6.068l0.752 0.773 0.39-0.376c0.087 6.351-0.476 12.055 1.895 17.087-0.759 1.426 1.136 3.513 2.654 3.79 3.131-0.66 3.236 3.234 4.563 4.938 1.426-1.044-0.285-3.124 0.746-4.556-0.185 0.384 0.396 2.185 1.915 1.518l0.369 3.421 1.531-0.752c0 0.937-1.531 1.135-1.148 2.271l0.759 0.753c1.527-1.333 2.847-2.748 2.285-4.938l-0.758-0.754c1.794-0.943 1.232-2.746 1.893-4.18l1.901 2.279c1.903-0.846 2.755-2.839 3.421-4.556 0.469-2.365-1.334-2.464-2.655-3.045-0.672 0.391-0.289 1.249-0.388 1.908 0.185 0.185 0.388 0.476 0.759 0.383 0.469 1.044-0.759 1.044-1.137 1.52-2.099-1.335 1.137-5.138 1.137-7.976 2.469-0.951 1.618-4.477 3.414-4.551 3.144-4.958 3.895-11.68 3.426-17.106l-1.143 1.143c3.514-4.655 0.86-11.866 3.79-16.713-0.475-8.055 7.607-15.66 1.526-22.778-0.761-5.414-0.469-13.292-5.692-16.335-0.95-3.513-3.988-6.167-2.291-9.864 0.298-4.761-0.66-7.5 0.76-11.773-1.221-4.093 2.199-7.123 1.531-11.396l-1.531-1.142c-3.023 5.03-1.506 12.815-5.692 17.84h-0.76c-1.142 4.477 0.952 10.729-1.511 14.063-1.241 0.938-0.682 2.654-1.524 3.79-3.038 6.74-4.187 14.916-9.496 20.132-1.037 4.181-2.186 8.365-4.938 11.785 0.198 0.186 0.477 0.37 0.39 0.74-0.39-1.599-2.47-0.37-2.661 0.766l1.13 1.142-0.377 0.384c-0.66-0.667-1.234-1.525-2.278-1.136-0.364 2.265-4.271 1.513-3.038 4.549-1.326 3.414-2.084 7.593-2.276 11.007l-2.654-0.376 0.753-0.76c-1.419-0.284-3.322 0.482-4.933 0.76-2.093-1.143-1.334-5.414-4.932-4.557-1.52-1.519-3.804-3.419-3.428-6.074-1.419-0.29-2.555-1.043-4.166-0.767-0.673-2.646-1.52-5.875-4.569-6.826 1.532-5.038-6.08-4.278-5.321-9.508-1.419-1.319-0.477-3.499-0.759-5.322 0.957-1.974 0-5.031-0.754-7.196-1.32-6.464 3.229-12.822-2.653-17.087-0.297-4.748-0.574-9.509-3.049-13.292 0.857-2.846 0.295-6.174-1.513-8.365h-0.759c-0.469-3.328-2.47-5.891-2.278-9.488-1.142-1.816-0.481-4.945-3.421-5.314l-0.745-2.284 1.127 1.9c0.383-0.759 1.235-1.81 0.383-2.661-0.475-1.241-1.994-0.858-2.66-0.376-1.704 1.137 0 2.753 0 4.173l0.376 0.383-1.896 0.766c1.328 1.13 1.896 3.988 3.796 4.543-1.808 2.469 2.371 3.71 0.383 5.704 4.28 4.648-0.099 11.582 0.76 17.089-3.044 3.05 1.703 5.691-1.526 8.371 0 2.166-3.129 4.451-0.388 6.431v2.655c-0.747-1.789-2.365-3.209-2.26-5.302-0.95 1.61-1.326 3.513-1.142 5.691-0.39-0.086-0.581 0.19-0.766 0.383-2.081-4.272 1.711-9.303-2.284-12.915 0.396 0.1 0.567-0.192 0.759-0.376 0.113-0.753-0.079-1.427-0.759-1.889-2.087 0.753-0.746 3.975-1.135 5.321l0.389 0.37 0.746-1.518c0.297 2.079-2.178 3.406-0.375 5.309l-0.371 4.561c-0.389-2.382-1.987-4.271-3.038-6.463 1.791-7.025-5.987-9.957-6.463-15.945-2.655-1.711-0.759-5.322-3.796-6.84-1.511-4.081-2.938-7.211-3.414-11.767-1.808-2.582-1.623-5.89-2.647-8.735 0.74-0.106 1.783 0.277 2.259-0.383-0.186-0.853-1.52-1.61-2.259-0.766l-1.915-3.791c0.469 0.278 2.755 1.044 3.797 0.767 0.483-0.964-0.752-1.241-1.142-1.901h-0.369c-0.285-1.993 1.037 0.093 1.511-1.519-1.796-1.611-4.463-2.284-6.464-2.284l-1.13-1.519c0.191 0.185 0.383 0.475 0.761 0.383 1.142-0.76-0.661-1.335 0.751-1.901-1.788 0-2.463-1.327-3.406-2.661l-1.908 1.155-3.42-4.569-0.752 1.512c-1.996-5.024-4.926-8.444-7.971-11.772-0.673 0.674-0.29 1.809-0.388 2.654-2.174-0.383-0.285-4.741-3.031-6.062 0.283-2.951-3.526-1.81-2.662-5.321l0.766 0.754c2.179-1.414-0.766-2.655-0.766-4.167-0.661 0.667-0.277 1.802-0.39 2.647-1.604-1.222-1.882-2.747-3.79-4.179-0.66 1.34-0.66 2.29 0.384 3.426-1.044-0.198-1.803-1.136-2.66-1.895v-1.531c0.369-0.087 0.56 0.19 0.752 0.389 1.333-2.378-2.271-0.099-2.655-1.901-1.894-1.136-1.327-6.365-4.18-4.166-3.704-0.205-1.413-5.237-5.308-4.946-0.284-1.333-1.142-2.37-1.896-3.419 0.562 0.092 0.754-0.477 1.123-0.754v-0.766c-2.357 0.562-4.357-0.76-5.692-3.044-1.987-2.463 0.383-7.777-2.653-9.871 3.234-10.92 4.173-22.778 7.977-33.417 0.666-3.333 0.091-7.031 1.901-9.883h-0.39v-2.655h0.39c0 0.376-0.093 0.865 0.369 1.149 1.335-0.674 2.576-2.278 3.421-3.051-1.42-1.994 1.242-6.272-0.752-8.345l-0.766 0.766-1.512-3.05c0.562-0.186 1.134-0.278 1.512-0.753l-0.753-1.148 2.662-0.369c-0.29-2.008-2.092-3.619-3.044-4.945l-0.375 0.375c-1.697-0.277-2.66-4.357-4.563-1.902l0.397 0.396h-0.397v-1.149c1.149-0.476 3.519 0.752 4.563-0.752l-2.66-1.526c0.474 0 0.963 0.093 1.142-0.382-1.142-0.093-2.087-1.229-2.647-1.896l-0.397 1.896c-0.383-3.124-4.654-1.037-4.549-3.785-0.383-1.333 0.852 1.229 1.889 0.372 0.29-1.427 2.858-1.896 1.894-3.804l-1.511-0.753c0.574 0.092 0.766-0.468 1.127-0.766-0.177-0.191-0.362-0.468-0.751-0.383v-0.752h0.751c0.483-0.759 0.297-2.073-0.751-2.661 0.481-0.085 1.235 0.291 1.518-0.375 0-0.476 0.105-0.938-0.383-1.136h-1.135c-0.086-0.383 0.198-0.575 0.39-0.766-0.191-0.469-0.68-0.37-1.149-0.37-0.476 0.191-0.377 0.661-0.377 1.136l-0.766-1.519c-1.03 0-0.851 1.426-1.887 0.383 0.468-0.099 1.233 0.278 1.511-0.383 0.206-1.148-1.617-0.765-1.128-1.901 2.271-0.092 1.611 3.13 3.797 1.901 0.845 2.377 4.271 3.116 6.074 3.796-2.945-2.938-5.89-5.315-5.712-9.111-1.788-1.235-1.987-3.03-3.03-4.556 1.989 1.526 3.414 4.18 5.329 5.685 0.469-2.938-3.71-4.84-3.809-7.963 1.149 0.185 1.333 0.092 2.277-0.383 0.581-2.562-3.697 0.383-1.128-2.284-0.476-0.278-0.39-0.752-0.39-1.136 0.481-0.779 2.006 0.184 1.901-1.142-1.703 0.191-2.085-1.71-1.901-2.662l0.751 0.753c0.297-0.753 2.952-1.69 1.546-3.031-0.199-2.08-2.866-0.475-3.057-2.661l1.894-0.37c0.488-1.136-1.135-1.333-1.135-2.271h-0.759c0.383-0.199 3.057-0.965 1.511-2.285-0.653-2.186 3.249-0.105 0.767-2.284l0.78-1.135c-1.44-0.291-2.674-1.149-4.201-0.39 1.816-0.852 6.458 0.482 6.075-3.031l-1.518-1.149h3.05v0.383c1.321 0.68 3.037 0.297 4.548 0.383l-1.511 0.766c0.469 0.376 0.853 0.95 1.511 0.752 1.427-0.568 1.144-2.938 3.052-2.285-0.285 0.858 0.481 1.235 0.752 1.908 3.414-2.086 7.969-0.673 12.149-1.525 4.847 0.68 9.594-0.845 13.667-3.031l-0.376-0.383c0.668-0.667 3.988-3.506 5.321-2.277-0.666-0.291-1.048 0.383-1.525 0.76v0.375c3.902 1.057 6.847-3.513 11.021-1.901 2.093-2.938 5.499 1.057 7.599-1.888-0.481-0.674-1.999-0.185-1.525-1.526 1.716 0.475 7.514 1.037 9.872-1.895l3.425-1.149-3.05-0.759c-0.093-0.562 0.958-1.136 0-1.513l0.396 0.377 1.129-1.136c-1.716-0.95-2.846 0.086-4.555-0.752 2.568-2.1 7.309 1.327 7.222-3.803 2.186-1.803 5.877-0.865 7.218-3.797 1.037 0.271 1.505-0.482 2.271-0.766v-0.752c-1.611-1.043-3.136 0.661-4.939 0.37 0.666-1.03 3.144-0.654 3.031-2.648 1.908 0.575 1.908-1.901 3.038-2.277 1.424-0.105 2.752-0.68 3.809-1.532l-0.759-0.752c-0.758 0.191 2.747-0.185 3.797-1.135l-1.144-1.526c1.91-0.561 1.036 2.001 2.286 2.661 0.944-0.562 1.049-1.525 1.513-2.284l-0.754-0.753 1.13-0.753c-0.187-0.191-0.469-0.383-0.376-0.766h1.142c0.098 0.383-0.191 0.574-0.378 0.766 2.76-0.105 1.137 3.031 3.803 3.031 0.086-1.235-0.864-2.951-1.908-4.18-2.001 0.766 0.864 0.291 0-0.766 2.76-0.832 5.791-1.215 8.366-2.648-0.488-0.39-0.773-1.049-1.525-0.766 3.321-1.803 7.876-2.555 11.764-3.789l13.7 1.17z" fill="#FFFFFF"/>
		<path d="m420.73 142.47c-1.149 0.469-1.81-0.858-2.291-1.142l2.29 1.14z" fill="#FFFFFF"/>
		<path d="m650.86 144.36c0.291 0.476 0.767 0.389 1.136 0.389-0.278 1.506-1.987 1.327-3.045 1.882 0.687-1.796 1.249-3.585 3.045-4.926 0.2 1.16-0.28 2-1.14 2.66z" fill="#FFFFFF"/>
		<path d="m645.55 142.47c0.094 1.327-1.426 0.383-1.893 1.136l-0.383-0.383c0.75-0.29 1.32-1.04 2.27-0.76z" fill="#FFFFFF"/>
		<polygon points="393.77 145.5 397.56 144.36 396.79 145.12"/>
		<path d="m643.27 144.75c-1.619 0.944 0.184 2.463-0.385 3.414-0.291 0.661-2.277 0.29-2.653 0.37 1.13-0.759 2.186-1.129 2.271-2.648-0.462-0.852-1.235-0.852-1.896-0.39 0.49-1.61 1.63 0.21 2.67-0.74zM442.36 145.89 442.36 145.89 442.36 145.89 442.36 145.89" fill="#FFFFFF"/>
		<path d="m442.36 145.89l3.426 0.747-3.43-0.75z"/>
		<path d="m386.92 147.02l-1.142 0.39v-0.772c0.49-0.01 0.96-0.09 1.14 0.38z" fill="#FFFFFF"/>
		<path d="m188.69 150.45c0.746-1.71-1.816-1.532-0.389-3.043h0.772l-0.38 3.04z"/>
		<path d="m381.6 147.78l-2.655 0.39c0.49-1.43 1.43 0.1 2.66-0.39z" fill="#FFFFFF"/>
		<path d="m647.81 149.3c-1.604-0.092-0.078-1.419 0.397-1.895 0.56 0.09-0.85 0.95-0.4 1.9z" fill="#FFFFFF"/>
		<path d="m372.11 151.58c1.425-0.475 3.882 1.242 4.179-1.512l1.511 2.265c-2.363-1.228-4.833 0.872-7.21-0.376 1.711-0.753 2.463-2.846 4.557-3.42l-3.04 3.04z" fill="#FFFFFF"/>
		<path d="m647.45 150.82c-0.857 0-1.808-0.185-2.263 0.759-0.31-0.48 1.88-3.51 2.26-0.76z" fill="#FFFFFF"/>
		<path d="m635.29 153.1c-0.278 1.241-1.136 2.271-1.89 3.42l-1.518-1.532c0.94-1.03 1.99-2.07 3.41-1.89z" fill="#FFFFFF"/>
		<polygon points="637.2 154.99 637.95 154.24 638.71 154.24" fill="#FFFFFF"/>
		<path d="m643.27 154.24c0 1.241-1.336 2.179-2.286 2.661h-0.376c1.05-1.14 0.87-2.47 2.67-2.66zM367.55 156.14 367.55 156.14 367.55 156.14 367.55 156.14" fill="#FFFFFF"/>
		<path d="m367.55 156.14h-1.142l0.766-0.766c0.19 0.2 0.47 0.39 0.37 0.77z" fill="#FFFFFF"/>
		<path d="m369.08 158.42c-2.945-0.766-5.13 1.142-7.217 1.895l1.149-0.753c-0.204-0.185-0.383-0.475-0.773-0.376 1.321-2.007 4.847-0.291 6.841-1.908v1.14z" fill="#FFFFFF"/>
		<path d="m377.43 157.65c-0.859 0.971-2.178 0.766-3.427 0.766 0.77-0.48 2.19-0.66 3.43-0.77z"/>
		<path d="m634.54 159.18c1.611-2.766 2.74 0.654 4.938-1.532 1.606 4.279-5.705 3.605-4.567 7.989-0.654 1.697-2.655 1.235-3.798 0.753 1.044-1.803 4.655-2.952 4.939-5.698-2.47 0.858-5.501-0.185-7.97 0.752-0.674-0.278-0.284-1.03-0.383-1.506 2.179-0.383 4.74-0.673 5.697-2.291l1.14 1.54z" fill="#FFFFFF"/>
		<path d="m645.55 158.8c0.094 0.575 0.192 1.896-1.127 1.896-0.391-0.106-0.582 0.185-0.766 0.383l-0.383-0.383c0.76-0.66 1.33-1.72 2.28-1.9z" fill="#FFFFFF"/>
		<path d="m355.4 161.83c-0.191-0.185-0.383-0.475-0.754-0.383l0.754-0.752c0.85 0.47 0.67 0.47 0 1.13z" fill="#FFFFFF"/>
		<polygon points="344.01 162.6 345.53 161.83 346.29 161.83" fill="#FFFFFF"/>
		<path d="m353.12 162.6c-0.091-0.667-1.327-0.1-0.376-0.766h1.13l-0.75 0.77zM367.17 162.98 367.17 162.98 367.17 162.98 367.17 162.98" fill="#FFFFFF"/>
		<path d="m367.17 162.98c-0.376 0.462-1.419 0.646-2.291 0.759v-0.759h2.29z" fill="#FFFFFF"/>
		<path d="m630.74 163.74c-2 0.278-2.469 2.555-4.174 2.655-0.297 2.178-6.464 1.618-2.659 4.555 0.19-0.191 0.376-0.475 0.759-0.376-0.094 0.759-1.044 1.228-1.525 1.901 2.001 0.093 3.804-1.525 5.697-2.277-1.518 1.889-2.652 5.216-5.321 6.074-0.767 0.285-1.319-0.475-1.518-0.759 1.518-1.044 1.142-1.902 1.142-3.038-0.943 0.747-2.37 1.314-2.655 3.038-1.419-1.334-4.085 0.759-6.08 1.135-1.321 2.37-4.364 1.413-5.31 3.79 1.138 0.198 3.031-0.191 4.181-1.136v0.766l-0.391-0.383c-1.702 1.809-2.093 5.216-4.556 5.692-0.282-0.371-2.746-0.667-1.525-1.896l2.291-1.142c-0.665-0.845-0.289-2.093-0.766-3.037 0.383 0.105 0.575-0.178 0.766-0.369-2.291-1.242-4.271 0.475-6.08 1.505-0.094 0.396 0.185 0.568 0.376 0.766h0.759l-1.511 0.76c0.282-2.278-2.099-0.668-3.045-1.13-3.228 2.932-4.654 1.228-8.734 2.271l1.512 1.135c-0.95 0.377-2.647 2.001-3.023 3.038-2-0.852-3.803 1.716-4.945 0 0.574-0.766 2.383 0 1.901-1.519l1.908 0.752c0.845-0.752-0.105-1.703-0.768-2.271-1.993 1.235-4.562 2.371-6.839 1.902 0.853 0.944 3.235 0.944 2.277 3.03-1.987-0.178-3.036 1.909-5.314 1.143 0.19-0.568-0.477-0.766-0.759-1.143-1.987 0.1 0.665 1.618-0.767 1.909-2.733-1.427-2.555 2.746-4.927 2.654-0.956 2.482-4.853 1.426-7.222 2.285-5.31 2.377-11.668-0.285-15.945 3.79 6.753 1.333 13.575-1.136 19.748-1.889 1.227-0.575 2.754-0.389 3.796-1.518l-0.377-0.383c0.477 0 0.945 0.092 1.138-0.39v-1.129c1.61 0.746 2.186-1.333 2.276-1.532 1.513 0.958-1.524 1.334 0 2.278l5.692-1.512c-0.476 2.562-5.6 2.76-8.352 4.186-5.786 2.087-11.483 5.692-17.854 5.31-0.852 0.95-2.568 0.759-3.03 1.888 3.419 0.858 6.847-1.598 10.254-0.753 0.469-0.752 1.228-0.752 1.9-1.135l0.383 0.383c-1.999 1.135-4.654 0.567-4.938 3.414l3.03 0.363c-0.666 0.872-1.518 1.333-2.647 1.163-0.665-1.163-1.808-1.242-3.043-1.163 0.191 2.192-2.76 0.502-4.556 1.538 3.036 2.265 7.783 0.377 11.388 1.142v1.519c-3.789 0.858-7.585 2.938-11.388 2.661 0.283 3.129-3.321 1.789-4.945 2.662 0.673-0.873 0.872-1.909 0.767-3.051-1.42-1.136-2.181 1.05-3.798 0 1.71-0.277 3.122-1.136 4.557-1.888-3.045 1.32-6.458-2.482-8.353-1.148 0.943-1.426 3.228-0.476 4.172-0.753-0.376-0.29-0.566-0.95-1.142-0.765 0.197-1.611 2.476 0.092 3.036-1.519l-2.271-1.512c-0.383-0.298 1.803-0.582 1.888-1.525-1.986-0.476-4.364 0.37-6.073-1.518 3.143 2.562 4.277-1.796 7.217 0 0.488 0 0.957 0.098 1.149-0.377l-0.383-0.389c-0.378-0.555 1.048 1.149 1.524 0-0.297-1.81-2.291-1.235-3.435-1.902-2.555 0.383-6.073 0.772-9.111 1.149l3.804-1.902-1.142-0.752 1.142-1.136-2.284-1.518c2.566-1.81 5.796 0.383 7.592-1.525 7.514-1.526 15.669-3.229 22.417-4.563-3.221-1.321-8.167-2.087-10.638-1.896h-0.8v-0.376c3.988 0.277 9.595 0.185 13.681-1.902l-4.186-0.383c2.376-1.32 4.938-1.994 7.21-3.42 0.304 0.667 0.964 1.809 1.908 1.525 1.523-0.469 3.03-2.661 4.556-3.427 3.321-2.562 7.502 0.475 10.637-2.648 6.358 0.575 12.438-3.413 16.697-6.458 2.662 1.235 2.291-3.889 4.938-1.519l0.384-0.759v0.377h2.668c0-2.477 0.958-3.229 3.03-4.18h0.772c0 0.389 0.086 0.858-0.396 1.142 0.864 1.235 1.717-0.958 2.283 0.759l1.896-1.901 0.759 1.142c0.57-3.08 5.6-3.47 7.6-2.6z" fill="#FFFFFF"/>
		<path d="m360.72 164.1c-1.037 1.624-1.326 1.241-1.128 3.433l-4.187-1.142 4.187-1.142-0.76-1.513c0.66 0.09 1.51-0.3 1.89 0.36z" fill="#FFFFFF"/>
		<path d="m625.42 165.25l-0.376-0.37 1.137-0.779c0.19 0.58-0.48 0.78-0.76 1.15z"/>
		<path d="m348.95 165.64h1.13-1.13z" fill="#FFFFFF"/>
		<polygon points="211.85 167.92 211.46 166.4 211.85 166.77"/>
		<path d="m372.49 166.77c-1.142 0.482-2.462 0.568-3.796 0.766 1.24-0.29 2.28-1.05 3.8-0.77zM348.57 168.29 348.57 168.29 348.57 168.29 348.57 168.29"/>
		<path d="m348.57 168.29h-0.751l0.369-1.136c0.47 0.19 0.38 0.66 0.38 1.14z" fill="#FFFFFF"/>
		<polygon points="218.69 169.81 217.54 169.06 218.69 169.06"/>
		<path d="m351.98 170.2l-0.376-0.383c-0.476-0.284 1.044-1.037 1.895-0.759l-1.52 1.14zM206.91 170.2 206.91 170.2 206.91 170.2 206.91 170.2" fill="#FFFFFF"/>
		<path d="m206.91 170.2c-0.858 0.277-1.908 1.604-3.426 1.135v-0.759c0.852 0.462 2.951 0.852 3.043-0.76l0.39 0.38z" fill="#FFFFFF"/>
		<path d="m362.23 171.33c0.285 0.469 0.773 0.376 1.144 0.376-1.328 0.476-1.896 0.568-3.421 0.377 0.099-2.172 2.47-0.469 3.421-1.512l-1.14 0.75z"/>
		<path d="m364.53 170.95h3.023-3.02z"/>
		<path d="m356.93 171.71c1.13 2.951-2.391 1.228-3.427 2.271l-3.79-0.37c1.221-1.426 4.272 1.427 3.414-1.525h-1.142c1.61-1.22 3.04-0.85 4.95-0.37z" fill="#FFFFFF"/>
		<path d="m615.16 172.84l0.377 0.377c-2.938-0.285-3.223 2.192-5.691 0.759h-0.383v-1.136c1.056-0.475 1.056 0.766 1.511 1.136 0.304-0.654 1.059-1.136 1.149-1.895l1.149 1.136c1.888 0 0.945-3.222 3.037-1.513l-1.16 1.13z"/>
		<polygon points="219.06 172.84 217.92 172.09 219.06 172.48"/>
		<path d="m226.28 174.38c0.285 1.796 4.74 2.456 2.277 4.556-0.376-0.568-0.659-1.909-1.894-1.909 0.469-0.284 0.383-0.753 0.383-1.136-0.383-0.284-0.582-0.951-1.149-0.759-0.383 1.228-0.946 2.272-0.752 3.804 1.609-2.576-3.143-3.612-2.662-6.458 1.6-0.19 2.08 2.47 3.79 1.91zM608.71 173.22 608.71 173.22 608.71 173.22 608.71 173.22"/>
		<path d="m608.71 173.22v0.759l-2.647 0.396 1.138-1.155-0.762-0.747c0.47 0.94 1.41 0.75 2.27 0.75z"/>
		<polygon points="246.02 175.51 241.85 173.98 245.65 175.13" fill="#FFFFFF"/>
		<path d="m342.11 175.13c-0.661 0.284-1.043 1.043-1.902 0.759l0.377-1.512c0.48 0.37 0.86 0.94 1.52 0.75zM238.06 177.79 238.06 177.79 238.06 177.79 238.06 177.79" fill="#FFFFFF"/>
		<path d="m238.06 177.79l-2.66-1.901c1.04 0.19 2.36 0.67 2.66 1.9z"/>
		<path d="m289.32 180.83c-3.797 0.462-7.587 7.012-11.383 3.407 4.648 0.661 3.123-6.642 7.217-5.69l0.369-1.526c2.93-0.46 1.33 3.05 3.79 3.81z" fill="#FFFFFF"/>
		<path d="m345.15 177.4h1.888-1.89z" fill="#FFFFFF"/>
		<path d="m356.17 178.17c-0.958 0.086-3.045-0.296-4.939 0.377 1.61-0.86 2.93-1.72 4.94-0.38z"/>
		<path d="m621.63 179.69c-0.198-0.383-1.247-1.625-0.39-2.284 0.48 0.56 0.39 1.42 0.39 2.28z" fill="#FFFFFF"/>
		<path d="m620.1 177.79c-0.282 1.228-2.554 2.371-2.277 3.044-0.659 0.462-0.276 1.505-0.377 2.271 1.52 0.661 3.691-0.95 4.187-2.271l-1.901 1.895c0.186 0.191 0.463 0.376 0.369 0.752-1.135 0.383-2.369 0.667-3.413 1.525-0.192-0.766 0.376-1.056 0.759-1.525-0.191-0.475-0.666-0.376-1.135-0.376-0.477 0.185-0.39 0.661-0.39 1.135h-0.76c0.865-0.475 0.865-1.234 0.377-1.901l-0.377-0.375 1.149-1.526c-0.099 0.396 0.184 0.568 0.376 0.766 0.46-0.85 1.32-2.84 3.4-3.41z" fill="#FFFFFF"/>
		<path d="m615.92 178.93c-0.567 0-1.611 0.085-1.519-0.76h1.519v0.76z" fill="#FFFFFF"/>
		<polygon points="353.88 180.44 356.17 179.3 357.3 179.3"/>
		<path d="m254 179.69h1.513-1.51zM351.6 181.96 351.6 181.96 351.6 181.96 351.6 181.96"/>
		<path d="m351.6 181.96c-1.05-0.668 1.044-0.958 0.376-1.896h0.766l-1.15 1.9z"/>
		<path d="m349.71 180.83l-0.759 0.753c1.52 1.333 5.31 1.142 5.698 1.142-3.136 0.456-6.562 0.456-9.494 1.512-0.383-1.056 0.562-1.611 1.134-2.277-0.474-0.285-0.381-0.76-0.381-1.13 1.32 0.09 2.66-0.94 3.8 0.01z"/>
		<polygon points="264.26 181.2 262.36 180.83 263.88 180.83"/>
		<path d="m343.25 181.2c-1.413 1.98-3.321 0.568-5.31 1.525v-0.39c1.9 0.96 3.6-1.79 5.31-1.13zM253.62 182.73 253.62 182.73 253.62 182.73 253.62 182.73"/>
		<path d="m253.62 182.73c-0.857 1.037-1.815-0.284-2.66-0.39l2.66 0.39z"/>
		<path d="m596.93 183.48h1.142-1.14z" fill="#FFFFFF"/>
		<polygon points="275.65 184.24 273 183.86 275.27 183.86" fill="#FFFFFF"/>
		<path d="m227.05 184.24l2.264 1.137-2.26-1.14zM600.35 187.28 600.35 187.28 600.35 187.28 600.35 187.28" fill="#FFFFFF"/>
		<path d="m600.35 187.28l1.143 1.895c0.277-1.803 3.135-1.598 2.652-3.795h1.149c0.376 1.815-2.1 2.575-2.284 3.043 0.277 0.654 1.051 0.277 1.519 0.376v1.519c-0.767-0.099-1.519-1.413-2.277-0.383 0 0.951 0.943 0.588 1.135 1.532-0.846-0.106-4.648 0.568-4.172-2.292l-2.284-0.376 1.142-1.519-1.896-1.136c0.1-1.433 1.802-0.476 2.662-0.765 0.01 0.38-0.18 2.76 1.52 1.9z" fill="#FFFFFF"/>
		<path d="m578.7 186.14c0.1 0.661-1.036 0.284-1.511 0.37 0.66 0.29 0.94-0.46 1.51-0.37z"/>
		<polygon points="505.41 187.28 503.89 186.51 504.65 186.51" fill="#FFFFFF"/>
		<polygon points="274.51 187.66 272.61 187.28 274.14 187.28" fill="#FFFFFF"/>
		<path d="m284.01 191.08c-1.427 1.042-3.327 1.042-4.94 1.518-0.481-0.383-0.857-1.135-1.518-1.135 1.81-1.05 0.661-3.717 3.038-4.187 0.67 1.63 2.94 2.66 3.42 3.81zM536.92 187.66 536.92 187.66 536.92 187.66 536.92 187.66" fill="#FFFFFF"/>
		<path d="m536.92 187.66c-0.18 0.661-1.514 0.291-2.271 0.383 0-1.24 1.81-0.85 2.27-0.38z" fill="#FFFFFF"/>
		<path d="m595.43 187.28c-1.617 1.796 1.413 1.716 0.384 3.804l-5.705-0.766c2.75 0.77 2.94-2.73 5.33-3.03z" fill="#FFFFFF"/>
		<path d="m551.37 188.42c-1.519-0.575-2.562 1.129-3.796 0 0.665-0.845 2.753 0.086 3.796-0.759v0.76z" fill="#FFFFFF"/>
		<path d="m540.73 188.04c-0.942 0.95-1.611 0.376-2.648 0h2.65z" fill="#FFFFFF"/>
		<path d="m271.86 190.32c-1.723 0.205-3.612-0.099-4.193-1.896 1.62 0.09 3.81 0.38 4.19 1.9z" fill="#FFFFFF"/>
		<path d="m559.72 189.93h-3.031v-0.383c1.04 0.11 2.28-0.28 3.03 0.38z" fill="#FFFFFF"/>
		<polygon points="258.57 190.69 258.57 190.32 261.99 191.08" fill="#FFFFFF"/>
		<path d="m552.13 191.08c-0.101 0.383 0.184 0.567 0.383 0.752-2.661 1.427-5.798 1.81-8.743 2.667-1.704-0.197-3.42-0.291-5.315-0.766 0.469-0.192 2.173-1.043 1.52-2.271-1.427-1.532-2.476 1.32-3.804 0 0.958-1.717 2.463 0.085 3.428-0.383 2.468 0 4.925-1.149 7.594 0.383 1.89 0.48 3.03-0.85 4.93-0.38zM589.72 191.83 589.72 191.83 589.72 191.83 589.72 191.83" fill="#FFFFFF"/>
		<path d="m589.72 191.83c-0.859 1.242-3.03 2.853-4.562 1.136-0.653 1.05-0.284 1.717-0.759 2.661-0.371 0.105-0.562-0.178-0.759-0.383-0.094-0.561 0.493-0.746 0.759-1.129-0.266-0.383-0.853-0.575-0.759-1.149 0.759-1.888 3.142-0.937 3.801-2.278l2.28 1.14z" fill="#FFFFFF"/>
		<path d="m391.11 194.88c-1.908-0.1-1.043 2.653-0.759 3.795-2.001-2.271 0.469-5.322 1.513-7.592-0.28 1.23-1.62 2.55-0.75 3.79z"/>
		<path d="m546.42 191.46c-0.277 0.66-1.321 0.851-2.271 0.752 0.57-0.75 1.71-0.09 2.27-0.75z"/>
		<path d="m271.48 192.6c-0.292 0.661-1.05 0.285-1.52 0.37l-0.383-0.752c0.56 0.19 1.13 0.47 1.9 0.38z" fill="#FFFFFF"/>
		<path d="m278.69 193.35c-0.569 0.475-1.427 0.383-2.271 0.383-0.01-1.22 1.79-0.85 2.27-0.38z" fill="#FFFFFF"/>
		<path d="m563.89 192.97c0 0.858-1.704-0.185-1.521 1.149 2.952 1.617 4.841-1.426 7.983-0.383-3.703-0.291-6.647 2.562-10.26 1.512l1.143-0.746-1.901-0.766c1.81 0.29 3.04-0.47 4.56-0.76z"/>
		<path d="m264.64 193.74h1.518-1.52z" fill="#FFFFFF"/>
		<polygon points="550.98 195.63 551.74 194.88 555.17 194.88"/>
		<polygon points="279.83 197.16 279.45 195.25 279.83 195.63" fill="#FFFFFF"/>
		<path d="m581.75 196.4c-0.383 0.646-1.241 0.277-1.907 0.383 0.76 0.09 1.24-1.53 1.91-0.38zM279.83 197.92 279.83 197.92 279.83 197.92 279.83 197.92" fill="#FFFFFF"/>
		<path d="m279.83 197.92c0.191 0.568-0.469 0.753-0.761 1.136v-1.136h0.76z" fill="#FFFFFF"/>
		<path d="m536.17 199.06h1.52-1.52z" fill="#FFFFFF"/>
		<polygon points="547.95 200.56 546.81 199.43 547.95 200.2"/>
		<polygon points="576.44 200.95 575.28 200.2 576.44 200.56" fill="#FFFFFF"/>
		<path d="m571.87 200.95c0 0.389 0.091 0.858-0.378 1.142l-0.377-1.142h0.76zM275.65 204.75 275.65 204.75 275.65 204.75 275.65 204.75" fill="#FFFFFF"/>
		<path d="m275.65 204.75c-1.043-0.093-1.889-0.66-2.648-1.518 1.51 0.2 3.02-0.77 2.65 1.52z" fill="#FFFFFF"/>
		<path d="m280.59 203.23c-0.185 0.383-1.229 1.135-1.901 0.383-0.11-1.22 1.43-0.76 1.9-0.38z" fill="#FFFFFF"/>
		<polygon points="550.6 203.99 550.23 203.23 551.74 203.23"/>
		<rect y="204.75" x="387.69" height="1.525" width=".383"/>
		<path d="m567.32 205.88l-0.389 0.39c-0.377-0.582-1.802-1.235-1.136-1.525 0.68 0.01 1.05 0.78 1.53 1.14zM542.26 207.03 542.26 207.03 542.26 207.03 542.26 207.03" fill="#FFFFFF"/>
		<path d="m542.26 207.03h-3.426c0.96-0.58 2.57-0.58 3.43 0z" fill="#FFFFFF"/>
		<path d="m576.81 210.45h-1.13c0.284-0.488 0.758-0.383 1.13-0.383v0.38z" fill="#FFFFFF"/>
		<path d="m570.73 210.45c-0.19 1.611-1.518 2.457-3.036 1.519 0.48-1.05 1.99-1.05 3.04-1.52z" fill="#FFFFFF"/>
		<path d="m274.89 211.19v1.162h-1.135v-0.383h-1.901c0.85-0.96 1.98-1.52 3.03-0.78z" fill="#FFFFFF"/>
		<polygon points="562.76 212.72 563.52 211.97 563.89 212.36" fill="#FFFFFF"/>
		<path d="m387.69 219.18c-0.376-0.099-0.575 0.186-0.766 0.377l1.149-3.031-0.38 2.65zM547.95 221.08 547.95 221.08 547.95 221.08 547.95 221.08"/>
		<path d="m547.95 221.08c-0.853 1.221-0.101 2.752 0.766 3.789l2.654-1.518 0.76 1.518c-2.854 0.674-5.798 0.291-8.736 0.383l-0.383-1.518c1.05 0 0.951 1.9 2.271 1.518l0.766-0.753-3.789-2.667c0.66 0.468 1.414 0.383 1.896-0.377l0.752 0.76 1.908-1.526c0.28 0.5 0.75 0.4 1.13 0.4z" fill="#FFFFFF"/>
		<rect y="221.46" x="386.17" height="4.549" width=".375"/>
		<polygon points="513 226.01 513.39 223.74 513.39 225.64"/>
		<path d="m267.66 226.01c-0.469 0.68-1.506 0.291-2.264 0.383 0.56-0.66 1.52-0.29 2.26-0.38z" fill="#FFFFFF"/>
		<polygon points="550.23 229.05 551.37 227.92 552.88 228.3" fill="#FFFFFF"/>
		<path d="m516.05 231.34c-0.104-0.581-0.469-1.32 0.37-2.285l-0.37 2.28zM521.36 229.43 521.36 229.43 521.36 229.43 521.36 229.43" fill="#FFFFFF"/>
		<path d="m521.36 229.43c0.197 0.588-0.47 0.766-0.754 1.135-0.29 0.2-0.1-1.32 0.75-1.13z" fill="#FFFFFF"/>
		<polygon points="543.77 230.95 545.66 230.2 546.81 230.95" fill="#FFFFFF"/>
		<path d="m516.05 234.75h-0.383l-0.376-2.285c0.18 0.77 1.13 1.25 0.76 2.29zM535.03 236.65 535.03 236.65 535.03 236.65 535.03 236.65" fill="#FFFFFF"/>
		<path d="m535.03 236.65h-0.752c1.808-0.575-0.292-2.569 0.376-3.428 0.08 1.16 1.42 2.3 0.37 3.43z" fill="#FFFFFF"/>
		<polygon points="519.1 235.52 519.84 234 519.84 234.75" fill="#FFFFFF"/>
		<polygon points="516.42 238.92 516.81 237.4 516.81 238.54" fill="#FFFFFF"/>
		<polygon points="357.69 243.49 355.78 240.83 356.93 240.83"/>
		<polygon points="290.85 245.39 289.32 245.39 289.32 244.62 290.45 245.76" fill="#FFFFFF"/>
		<path d="m356.93 245.76l1.505 1.519-2.264 1.519c-1.149-0.477-1.229-2.087-1.149-3.414l1.908 2.647v-2.28z"/>
		<polygon points="359.59 246.91 359.19 245.76 359.59 245.76"/>
		<path d="m534.27 246.15c-3.698 1.604-0.292 5.612-4.94 5.691-0.659-2.37 3.329-0.469 1.902-2.654-0.46-1.52 2.09-2.01 3.04-3.04zM364.14 256.02 364.14 256.02 364.14 256.02 364.14 256.02" fill="#FFFFFF"/>
		<path d="m364.14 256.02h1.135c1.058 0.753-0.271 1.513-0.388 2.272l-0.747-0.759c-0.29 3.611 1.242 6.458-0.383 10.253-1.611-1.519-0.198-4.271-1.13-6.84l0.754-0.753c1.333-3.42-2.477-6.55-1.144-9.495 0-1.518-2.375-2.469-1.518-3.797 2.66 2.1 1.05 6.93 3.42 9.12z"/>
		<polygon points="520.99 249.19 523.26 246.91 524.77 246.91" fill="#FFFFFF"/>
		<path d="m324.64 249.94c-1.903-0.278 0-1.32-1.144-2.271l1.14 2.27zM359.59 249.19 359.59 249.19 359.59 249.19 359.59 249.19"/>
		<path d="m359.59 249.19c-2.76 3.604 2.363 9.203-1.532 12.161 0.85 0.463 0.85 1.228 0.375 1.896-0.285 0.661 0.68-1.816-0.746-1.513 0.852-1.901 1.618-5.81 0.746-8.749-0.653-1.142-0.191-3.136-0.746-3.795h1.9z"/>
		<path d="m389.58 250.32c0.29 1.704-0.481-0.661-0.383-1.135l0.38 1.14z"/>
		<path d="m355.78 256.02h-0.383c1.525-2.377-1.618-4.186 0-6.087 0.09 1.72 1.43 4.09 0.38 6.09z"/>
		<polygon points="324.27 254.89 323.5 252.6 324.27 253.74"/>
		<path d="m366.41 252.6c-0.278 0.666-1.03 0.283-1.525 0.382 0.3-0.67 1.06-0.29 1.53-0.38zM392.24 257.54 392.24 257.54 392.24 257.54 392.24 257.54"/>
		<path d="m392.24 257.54c0.084-0.377-3.995-1.419-2.292-3.414 0.29 1.33 0.77 2.94 2.29 3.41z"/>
		<path d="m518.7 256.4c0.192 0.383-0.284 0.858-0.759 0.766h-1.129l0.377-1.519c0.38 0.47 0.95 0.55 1.51 0.75z"/>
		<path d="m295.4 257.16l-0.376 2.278 0.38-2.28z" fill="#FFFFFF"/>
		<path d="m367.17 265.52c-2.754-2 0.666-3.526-1.52-6.082l0.383-0.766c0.38 1.91 2.47 4.29 1.14 6.85z"/>
		<polygon points="326.92 263.24 326.53 261.73 326.92 262.1"/>
		<polygon points="395.66 263.61 396.79 262.47 396.79 263.61"/>
		<polygon points="328.44 265.52 328.06 264 328.44 264.37"/>
		<path d="m366.8 267.41c-0.1 0.582 0.468 0.754 0.752 1.137-0.938 0.382-2.463-0.753-1.896-2.272 1.05-0.48 0.76 0.67 1.15 1.13z"/>
		<polygon points="393.38 270.06 394.52 268.16 394.52 268.93"/>
		<path d="m397.18 271.22v1.129l-1.52-1.902c0.39 0.47 0.94 0.58 1.52 0.77zM396.42 279.19 396.42 279.19 396.42 279.19 396.42 279.19"/>
		<path d="m396.42 279.19c0-0.476-1.518 0.661-1.142 1.518 0.383 0.654 1.242 0.278 1.903 0.383-0.1 0.377 0.185 0.568 0.376 0.76-0.376-0.192-0.867 0.284-0.766 0.746-0.271 1.717 1.043 1.81 1.901 3.051-0.198-0.489-0.661-0.39-1.135-0.39l-0.766 0.76c3.511 2.852 3.988 8.266 5.697 12.544v14.803c-2.846 1.519 0.575 3.328 0 5.321-1.604 4.068 1.137 7.125 0.76 11.78-1.894 1.135-0.76 3.222 0 4.542 1.058 2.668-2.363 6.755 1.52 7.224 1.334 1.98 3.328 1.803 3.797 4.172 2.574-1.899 4.469 2.18 6.832 1.52 0.483 0.198 0.866 3.051 2.669 3.413l0.376-3.036c2.192 4.179 3.696 8.642 5.697 12.908l-0.383 0.396c0.383 1.229 3.038 0.568 1.52 2.271-0.093 0.376 0.185 0.581 0.389 0.766 0.456-1.703 2.174-0.099 3.03 0.377l1.137 1.136c-2.37 2.753-3.037-3.507-5.692-1.902-0.462-4.655-5.506-5.685-7.977-9.118-0.282-5.124-4.739 0.957-6.08-3.407-1.604-1.334-2.938-1.9-4.18-3.426 0.871 2.957-2.086 1.142-2.654 3.81 0.477 2.641-2.562 5.309-0.376 7.203-0.673 5.038-0.853 10.261-0.745 15.576 1.412 0.766 0.455 2.562 0.745 3.803l-1.142 0.766c1.518 0.653 0 1.994 0 3.031 1.426 5.599 0.289 9.204 1.895 14.44l-0.753 11.759c-2.753 0.957 0.574 2.568-0.745 3.796l0.361 0.384 1.902-2.271c-0.574 3.13-0.574 6.074 0 8.729-1.426 0.845 1.229 2.747-0.766 3.803 0.857 4.266-1.605 8.644-0.753 12.901l-1.142 0.766c1.809 1.051-0.285 3.038 0.396 4.939-0.682-0.766-1.531-2.377-3.059-2.284h0.766c1.42-1.604-1.232-3.513 0.762-4.925 0 0.851-0.191 1.795 0.759 2.27 1.419-1.71-0.101-3.703 0.376-5.315l-1.135-1.142-1.149 1.142c-1.719-0.771-0.952-2.475-1.138-3.796 2.377-2.483 0.293-5.797 0.384-8.741 0.754 0.197 1.051-0.37 1.521-0.753 0.949-2.187-2.182-1.327-2.272-1.519 0.282-2.1 1.894-5.797 0.752-7.6-1.326-2.272 0.852-4.933-1.511-6.464-0.1-1.975 1.986-4.833-0.39-6.061-0.371-1.995 2.655-3.896 0-5.329 1.623-3.335-0.101-6.543 1.517-9.871l-1.517-1.889c1.24-0.58 0.291-1.136 0-1.901 2.198-3.895-1.333-7.223 0.766-11.026-1.242-4.833 1.044-10.617-1.896-15.193h-3.05v0.773c-1.037 0-2.37-1.625-2.662 0.369v1.519l-1.123-0.753c-0.58 3.328-3.141 0.945-4.561 3.791-1.803 1.716-4.18 1.333-6.082 3.413l1.902 3.044-3.038-3.044c-0.964 0.76 0.277 1.724 0 2.291l-1.518-1.136 0.383-0.396-1.149-1.137c-1.144 0.1-0.847 1.532-1.144 2.285 0.852 1.05 1.91 1.625 3.052 1.895l0.375-0.376c-1.135 1.334 0.752 2.278 1.135 3.434-1.135-0.779-2.747 0.086-2.653-1.922-0.094-0.561 0.943-1.136 0-1.512l-1.137 0.766v-0.766h-1.908c-0.66 1.143 1.049 1.624 1.908 2.278h-2.284v-0.377c-0.958-0.858-1.908 0.753-3.038 0.753-0.383 3.526-4.747 3.13-4.548 7.223-2.753-3.696 3.881-5.407 3.406-9.111 3.334-2.469 3.519-6.933 7.601-8.358l1.9 1.512c1.037-0.179 1.413-1.32 1.511-2.277 1.711 2.674 3.988-0.278 4.562-1.896 2.76-0.76 3.89-4.371 5.692-5.698 2.186 1.994 1.795-1.98 3.796-1.52 0-2.191 1.709-2.561 3.426-3.036 0.847-1.994-1.815-3.988 0.761-5.322-1.903-1.703 0.759-3.987-1.137-5.69 1.986 0.105-0.688-2.562 0.747-3.797 2.198-4.55-2.568-8.069-0.371-12.156-0.105-3.327-0.666-4.925 1.137-7.593-0.867-7.415 0.665-14.327-4.18-20.118-0.285-2.674 0-3.044-1.135-5.322-1.249-2.568 0.944-5.606 0.752-8.735l3.41 4.59z"/>
		<path d="m396.05 274.63l-0.383 1.504 0.38-1.5z"/>
		<polygon points="331.85 276.91 331.48 275.77 332.23 275.77"/>
		<polygon points="332.61 283.37 332.61 281.47 333 283.37"/>
		<path d="m334.9 292.48c-1.711-0.872-1.525-3.143-1.525-4.938 2.56 0.94-0.28 3.32 1.52 4.94zM335.27 300.83 335.27 300.83 335.27 300.83 335.27 300.83"/>
		<path d="m335.27 300.83l-1.142-6.828c2.66 1.13 0.77 4.56 1.14 6.83z"/>
		<polygon points="334.9 305.77 334.9 302.36 335.65 302.36"/>
		<path d="m524.77 313.73l-0.379-0.369c0.681-0.567 1.514-1.796 2.286-0.766l0.376-1.122c1.42 1.51-0.94 1.99-2.29 2.26zM516.42 313.73 516.42 313.73 516.42 313.73 516.42 313.73" fill="#FFFFFF"/>
		<path d="m516.42 313.73c-0.179-0.454-0.652-0.369-1.129-0.369 0.29-0.943 1.519-1.327 2.647-1.135l-1.52 1.51z" fill="#FFFFFF"/>
		<path d="m512.63 316.02c-0.766 0.383-1.51 0.76-2.276 1.149 0.48-0.29 1.15-1.71 2.28-1.15z" fill="#FFFFFF"/>
		<path d="m517.19 320.2c-0.464-1.427 0.752-1.994 1.147-3.03 1.03 0.94-0.2 2.65-1.15 3.03z" fill="#FFFFFF"/>
		<path d="m501.62 324.76l1.895-2.655c1.42 1.42-1.62 1.81-1.9 2.66z"/>
		<path d="m316.67 349.82c-0.673 0.092-1.901-0.186-1.53-1.137l1.53 1.14z"/>
		<polygon points="312.11 353.62 311.35 351.33 312.11 352.11" fill="#FFFFFF"/>
		<path d="m491.73 355.91c-1.221 1.413 0.674 2.456 0.767 3.79-0.469-1.241-1.611-0.476-1.889 0-2.1-2.192-1.043-4.186 0.759-6.458 0.65 1.14-1.43 2 0.36 2.67zM329.96 365.77 329.96 365.77 329.96 365.77 329.96 365.77"/>
		<path d="m329.96 365.77c-0.575 0.277-2.293-0.277-3.038-1.525 0.852-1.895-2.284-1.512-1.156-3.043 1.35 0.88 2.39 3.25 4.2 4.57z"/>
		<path d="m323.5 365.02c-0.852-1.235-2.562-1.611-1.895-3.044 1.61 0.27 1.24 2 1.9 3.04z" fill="#FFFFFF"/>
		<polygon points="331.09 364.25 330.72 363.11 331.09 363.11"/>
		<polygon points="488.32 365.77 488.32 363.87 489.09 364.64"/>
		<path d="m321.6 366.15l-1.141-1.136 0.381-0.377c0.38 0.47 1.05 0.75 0.76 1.52z" fill="#FFFFFF"/>
		<polygon points="333 367.31 332.61 365.38 333 366.15"/>
		<path d="m336.03 367.31c0.1 0.646-1.037 0.27-1.511 0.369l-0.391-1.148c0.77-0.09 0.96 1.24 1.9 0.78z"/>
		<polygon points="373.62 370.33 372.49 367.68 374.01 367.68"/>
		<path d="m379.7 371.85c-1.611-0.581-1.314 1.327-2.648-1.136 0.191-0.198 0.469-0.383 0.383-0.76-0.285-1.611-2.767 0.191-2.284-1.896 4.75-1.23 0.38 3.8 4.55 3.8zM336.03 369.57 336.03 369.57 336.03 369.57 336.03 369.57"/>
		<path d="m336.03 369.57c-0.092 0.482 0.284 1.234-0.383 1.519l-0.745-2.277c0.57-0.18 0.75 0.48 1.13 0.76z"/>
		<path d="m381.6 381.73c-2.37-2.1-3.697-4.095-4.924-6.457 1.03 2.75 4.82 2.94 4.92 6.46z"/>
		<path d="m340.21 378.32l1.52 0.37-1.52-0.37z"/>
		<path d="m378.19 383.24c-0.192-1.704-2.469-2.556-1.895-4.55 0.66 1.13 2.64 2.93 1.89 4.55z"/>
		<polygon points="375.53 383.24 375.15 381.73 375.53 382.1"/>
		<path d="m443.14 392.73c-0.668-0.171-1.816-1.512-1.902-2.642l1.13-6.08c-0.01 2.46-0.47 5.89 0.77 8.72zM380.09 385.15 380.09 385.15 380.09 385.15 380.09 385.15"/>
		<path d="m380.09 385.15v0.752l-0.766-1.136c0.38-0.09 0.58 0.19 0.77 0.39z"/>
		<path d="m386.17 406.8c-0.958-0.573-2.186-1.049-1.157-2.297l1.16 2.3z"/>
		<path d="m388.83 410.96c-0.857 0.291-1.432-1.895-1.518-3.03l1.52 3.03z"/>
		<rect y="410.21" x="357.69" height="1.135" width=".371"/>
		<path d="m387.31 414.01c-0.864 0.086-0.766-0.95-0.766-1.525 0.29 0.2 1.04 0.76 0.77 1.53zM362.62 425.78 362.62 425.78 362.62 425.78 362.62 425.78"/>
		<path d="m362.62 425.78l-0.39-3.024c0.1 0.64 1.44 1.98 0.39 3.02z"/>
		<path d="m401.36 425.01c-0.292-0.95 0.376-1.703 1.134-1.889l-1.13 1.89z" fill="#FFFFFF"/>
		<path d="m396.79 430.7l-1.889-1.889 1.142-0.759c0.09 0.95 1.99 1.62 0.75 2.65z"/>
		<polygon points="393.38 434.52 392.61 430.7 393.38 432.23"/>
		<polygon points="397.56 433.75 397.18 431.84 397.56 432.61"/>
		<path d="m397.94 443.25c-1.625 0.283-0.105-2.667-0.383-3.42-0.19 1.43-0.09 2.1 0.38 3.42zM399.07 452.74 399.07 452.74 399.07 452.74 399.07 452.74"/>
		<path d="m399.07 452.74l-0.376-3.038c-0.198 0.187-0.384 0.476-0.752 0.377 1.049 0.186 1.987-2.463 1.894-3.413-0.47 1.61 1.06 4.16-0.76 6.07z"/>
		<path d="m382.37 449.32l-1.511 1.136 0.376-1.519c0.26 0.48 0.75 0.38 1.13 0.38z"/>
		<path d="m375.92 467.93c0.276 1.611 3.406 2.753 2.646 5.309 2.767 1.624 2.185 5.705 5.323 7.223-1.81 4.371 4.838 3.236 3.425 7.218 0.853-0.476 1.791 1.235 1.889-0.376v-1.137c8.45 4.833 2.76 15.477 4.938 23.539 1.994 3.044 1.697 7.69 6.076 9.105 4.178 0.673 6.561-2.734 7.592-6.062-0.469-2.854 0.674-5.699 1.901-7.21-0.099 0.368 0.192 0.567 0.376 0.752h1.135c1.051 3.229-2.363 7.687 1.532 9.106-2.186 2.099-0.68 4.462-1.153 7.981 0.672 5.406 3.518 10.92 1.9 16.335-1.514 0.086-3.124 1.518-4.549 0-1.988-2.76 0-8.175-4.94-8.742-3.794-0.384-6.358 2.1-9.87 2.285 0.086-1.718-1.81-1.718-2.667-2.669-3.025-4.938-4.926-10.339-7.964-15.19 1.797-8.063-3.136-14.244-3.05-22.014-0.369-6.835-6.734-11.206-5.69-18.614-1.903-3.882-4.174-7.698-5.692-11.766 3.01 0.67 4.44 2.66 6.82 4.94z" fill="#FFFFFF"/>
		<path d="m428.32 480.84l-0.377 0.383v-2.283c0.65 0.1 0.28 1.24 0.38 1.9z" fill="#FFFFFF"/>
		<path d="m434.02 507.43c-0.384 2.365-2.952 4.082-4.953 4.939-1.783-0.389-3.976-0.305-4.168-2.667-1.036-6.926 4.934-11.965 3.797-19.371 0.1 0.665-0.283 1.524 0.371 1.907 0.965-0.476 0.766-1.419 0.766-2.29-1.321-0.286-0.66-2.174-0.37-3.032l3.03-2.271c2.75 7.12 2.75 15.37 1.52 22.78z" fill="#FFFFFF"/>
		<rect y="486.92" x="441.24" height="1.895" width=".376" fill="#FFFFFF"/>
		<path d="m423.01 488.44c0.086 0.752-1.235 0.932-0.767 1.89v-1.89h0.77zM441.61 494.52 441.61 494.52 441.61 494.52 441.61 494.52" fill="#FFFFFF"/>
		<path d="m441.61 494.52c0.668-1.524-1.432-2.752 0.37-3.796 0.87 0.85 0.21 2.66-0.37 3.8z" fill="#FFFFFF"/>
		<path d="m401.36 494.14c-0.759 6.928 6.253 11.404 1.894 18.237-0.76 0.667-0.574 2.647-2.277 1.888-1.981-4.555-2.369-9.302-2.662-14.037 0.384 0.074 0.582-0.203 0.76-0.389 0.1-0.377-0.178-0.566-0.376-0.753l0.376 0.376c-0.376-1.999 1.234-3.229 1.145-5.322h1.14z" fill="#FFFFFF"/>
		<path d="m440.85 494.52c1.333 1.817-2.37 4.273-1.135 4.939l0.369-4.939h0.76z" fill="#FFFFFF"/>
		<path d="m445.79 498.32c-0.092 0.19-1.427 0.952-0.376 1.519v0.767h-1.143c-0.39-1.07 0.09-2.29 1.52-2.29z"/>
		<polygon points="416.92 504.01 416.55 502.11 416.92 503.25"/>
		<path d="m442.74 505.54c0.198 1.037-0.185 3.122-1.13 3.79-0.57 0.38 0.37-3.04 1.13-3.79zM416.55 520.71 416.55 520.71 416.55 520.71 416.55 520.71"/>
		<path d="m416.55 520.71l0.753 11.025c-2.747-5.137-1.902-11.878-2.643-17.854 1.78 1.8 1.22 5.03 1.89 6.82z" fill="#FFFFFF"/>
	</g>
</svg>