<?xml version="1.0" encoding="utf-8"?>
<!-- Generator: Adobe Illustrator 15.0.0, SVG Export Plug-In . SVG Version: 6.00 Build 0)  -->
<!DOCTYPE svg PUBLIC "-//W3C//DTD SVG 1.1//EN" "http://www.w3.org/Graphics/SVG/1.1/DTD/svg11.dtd">
<svg version="1.1" xmlns="http://www.w3.org/2000/svg" xmlns:xlink="http://www.w3.org/1999/xlink" x="0px" y="0px"
	 width="559.412px" height="553.287px" viewBox="0 0 559.412 553.287" style="enable-background:new 0 0 559.412 553.287;"
	 xml:space="preserve">
<g id="Area00">
	<rect style="&st1;" width="559.412" height="553.287"/>
</g>
<g id="Area01">
	<path id="XMLID_1_" style="&st0;" d="M486.274,145.504c2.12,5.83,4.59,14.56,4,21c-0.99,10.68-12.2,24.94-18,35
		c-7.43,12.9-13.34,21.48-20,33c-11.57,20.01-22.8,54.08-47,60c-14.33,3.5-30.64,0.35-47.66,0.52l-0.01-0.699
		c6.03-0.09,12.3-0.82,17.67-0.82c9.68,0,20.43,1.57,29,0c20.2-3.7,26.62-25.7,36-42c10.74-18.66,22.46-38.69,33-57
		c6.09-10.58,16.23-20.51,13-31c-7.46-6.59-19.38-4-30-4c-11.35,0-23.07,0-35,0c-17.02,0-34.42-1.66-50.3-1.45v-1.48
		c3.649-0.02,7.43-0.07,11.3-0.07c23.39,0,47.99,0,70,0c11,0,24.62,3.47,31-5c1.26-12.2-8.15-21.9-14-32
		c-12.13-20.95-22.93-40.15-35-61c-3.66-6.32-7.89-15.05-12.49-21.68l0.811-0.59c2.63,3.65,5.109,7.8,7.68,12.27
		c12.56,21.89,26.63,44.36,38,64C474.204,122.744,481.814,133.254,486.274,145.504z M428.274,196.504c13.71,11.37,38.61-1.28,38-20
		C451.595,163.634,426.584,179.504,428.274,196.504z M463.274,139.504c0.33-18.6-24.53-30.89-38-20
		C423.505,137.604,449.965,152.284,463.274,139.504z M406.274,22.504c-16.35-6-49.13-2-67-2c-10.49,0-22.71,0-35,0v1.67
		c11.73,0.01,23.79,0.33,34,0.33c11.98,0,23.4,0,34,0c17.62,0,32.69-0.96,43,7c2.23,1.72,4.41,4.31,6.51,7.32l0.811-0.59
		C418.005,29.834,412.965,24.954,406.274,22.504z M393.274,60.504c5.45,2.82,19.2,8.46,23-2c4.01-11.03-17.22-27.67-31-23
		C368.435,41.204,387.055,57.284,393.274,60.504z M381.274,274.504c1.75,9.29,16.35,7.76,24,4c12.87-6.33,23.98-28.46,1-26
		C396.154,253.584,379.055,262.764,381.274,274.504z M358.274,234.504c1.77,9.2,16.21,7.76,24,4c13.28-6.42,23.93-29.02,0-26
		C372.064,213.794,356.145,223.424,358.274,234.504z M335.274,195.504c2.64,9.24,17.46,5.41,24,2c8.97-4.67,14.64-9.42,14-21
		C363.114,163.174,330.925,180.254,335.274,195.504z M333.274,149.504c-3.6-2.78-7.36-8.15-10.98-14.13l-1.01,0.62
		c6.15,9.89,11.04,21.08,6.99,35.51c-1.93,6.88-8.03,14.12-12,21c-11.72,20.34-23.57,40.46-35,62
		c-21.1-7.68-33.58-23.98-57.46-28.88l-0.27,1.35c11.74,2.27,21.67,10.04,32.73,16.53c11.39,6.68,21.98,12.51,33.09,18.69l0.61-1.1
		c-2.72-1.24-3.561-4.36-6.7-4.59c11.99-23.33,24.51-43.71,38-67c7.47-12.91,13.21-27.09,31-30c5.89-0.96,12.16-1.36,18.7-1.45
		v-1.48C355.404,156.674,342.064,156.284,333.274,149.504z M369.274,141.504c0.22-0.78,0.03-1.97,1-2c4.65-19.35-34.54-33.56-38-18
		C329.274,134.984,356.294,151.314,369.274,141.504z M353.274,446.504c-3.72,10.29-16.01,18.68-27,25c-27.77,15.98-54.2,30.47-83,47
		c-5.38,3.09-11.62,8.07-17,6c-8.05-3.1-6-20.13-6-31c0-22.38,0-48.69,0-72c0-2.33-0.01-4.59-0.03-6.78h-0.65
		c0,14.11-1.32,30.101-1.32,44.78c0,10.21,0,25.3,0,37c0,8.38,2.38,27.33-5,31c-7.71,3.84-21.8-8.02-32-14
		c-21.95-12.87-38.87-22-61-35c-12.31-7.23-23.74-11.54-30.68-20.37l-0.71,0.54c12.09,15.47,36.93,25.17,53.39,34.83
		c10.81,6.35,22.06,12.58,33,19c11.5,6.75,23.28,15.03,34,19c4,0,8,0,12,0c20.83-8.77,49.91-25.81,71-38c9.85-5.7,22.25-13.25,34-20
		c12.66-7.27,23.7-14.93,28-25c2.99-6.99,3.73-17.94,3.73-29.83l-1.32-0.01C356.675,429.434,355.914,439.214,353.274,446.504z
		 M357.274,383.504c0-28.79,5.11-64.23-4-80c-1.63-2.82-6.55-4.59-5-8c3.13-0.31,6.25-0.45,9.34-0.48l-0.01-0.699
		c-3.62,0.06-7.14-0.12-10.33-0.82c-10.39-2.28-18.24-13.99-30-17l-0.69,1.18c10.48,6.11,25.341,12.88,25.69,19.82
		c0.25,4.97-6.17,9.82-13.13,13.93l0.729,1.17c4.061-2.5,8.15-4.699,12.4-6.1c0.56-0.19,1.4,0.05,2,0c5.21-0.45,9.19,0.33,11,9
		c1.05,5.06,0,18.18,0,19c0,8.72,0,28.04,0,38c0,14.7,1.42,31.37,1.41,46.16l1.32,0.01
		C358.005,406.904,357.274,394.214,357.274,383.504z M323.274,331.504c-15.57,13.58-11.83,44.91,8,30c6.94-5.22,13.76-20.13,10-32
		C334.704,324.214,328.294,327.124,323.274,331.504z M316.274,318.504c-20.27,11.68-40.3,22.7-60,34
		c-6.39,3.67-12.52,8.5-19.26,12.25l0.76,1.35c5.78-3.439,12.92-6.79,19.5-10.6c19.63-11.36,37.8-21.89,57-33
		c5.34-3.09,10.45-6.74,15.6-9.9l-0.729-1.17C324.475,314.184,319.564,316.604,316.274,318.504z M309.274,253.504
		c-6.67,1.83-13.85,8.76-18,8c-0.48-0.09-0.91-0.23-1.3-0.41l-0.61,1.1c8.47,4.72,17.24,9.64,26.91,15.31
		c0.1,0.06,0.2,0.12,0.31,0.18l0.69-1.18c3.28-6.24,11.24-8.4,10-17C325.805,249.274,317.654,251.214,309.274,253.504z
		 M324.274,56.504c1.44-11.95-21.12-24.8-32-21C266.755,44.424,321.204,81.994,324.274,56.504z M313.274,119.504
		c-13.22-23.24-22.41-40.86-35-63c-2.24-3.94-5.75-8.07-8.54-12.46l-1.4,0.43c3.37,5.17,6.311,11.47,8.94,16.03
		c13.01,22.58,21.48,38.18,34,60c2.86,4.98,6.62,10.04,10.01,15.49l1.01-0.62C319.104,130.094,316.034,124.354,313.274,119.504z
		 M270.274,20.504c-5.22,1.11-12.06,6.35-17,11c-5.08,4.78-7.55,10.87-11,17c-14.75,26.27-26,45.1-41,71
		c-0.77,1.33-1.55,2.62-2.34,3.88l0.72,0.43c5.84-9.62,12.53-19.79,18.62-30.31c5.57-9.62,10.9-19.15,16-28
		c6.19-10.75,11.44-21.67,17-28c6.72-5.3,12.31-0.29,17.06,6.97l1.4-0.43c-3.79-5.99-6.28-12.45-2.46-19.54
		c9.33-1.93,22.92-2.35,37-2.33v-1.67C292.725,20.504,279.475,18.554,270.274,20.504z M277.274,434.504c18.69-0.4,26.81-16.4,24-35
		C283.044,388.534,264.654,420.514,277.274,434.504z M257.274,181.504c17.27-0.17,15.19-46.74-3-41
		C241.094,144.664,241.745,181.654,257.274,181.504z M232.274,496.504c0.52,2.68,2.98,7.1,6,8c17.09,5.11,35.87-40.27,14-38
		C243.174,467.454,229.475,482.134,232.274,496.504z M208.274,369.504c-11.34-2.68-21.56-10.58-31-16c-19.33-11.1-37-22.64-59-35
		c-9.29-5.21-26.29-11.88-27-19c-0.89-9,18.45-17.65,26-22c23.89-13.77,38.51-22.65,60-35c11.34-6.52,22.71-14.65,36-16
		c3.61-0.37,7.01-0.16,10.27,0.47l0.27-1.35c-2.39-0.5-4.9-0.88-7.54-1.12c-5.5-9.32-10.58-18.59-16-28
		c-6.62-11.49-20.35-26.55-14-46c2.68-8.21,7.61-17.18,13.38-26.69l-0.72-0.43c-8.12,12.95-16.79,22.7-15.66,40.12
		c1.5,23.17,23.96,40.97,30,61c-13.96,1.98-24.8,9.2-35,15c-20.52,11.67-39.04,22.82-62,36c-10.22,5.87-24.1,12.31-29,20
		c-9.08,14.26-6,51.52-6,73c0,11.83,0,24.98,0,39c0,14.81-1.32,31.1,2,41c1.23,3.66,3.15,7.03,5.61,10.17l0.71-0.54
		c-2.32-2.95-4.14-6.399-5.32-10.63c-4.31-15.38-1-50.17-1-70c0-9.59,0-22.19,0-36c0-10.52-3.14-29,7-32
		c7.88-2.33,27.84,12.22,36,17c20.76,12.18,41.44,23.77,64,37c10.83,6.35,22.5,14.32,26,24c2.58,7.14,3.32,16.66,3.32,27.22h0.65
		c-0.1-18.56-0.12-32.279,9.03-42.22c2.07-2.25,5.04-4.34,8.5-6.4l-0.76-1.35C228.844,369.294,219.784,372.234,208.274,369.504z
		 M215.274,286.504c-12.94,0.85-20.19,4.5-20,12c0.42,16.36,46.09,16.41,42-3C235.574,287.434,220.064,286.194,215.274,286.504z
		 M202.274,506.504c9.08-10.16-2.73-34-13-37C162.464,461.674,182.444,518.084,202.274,506.504z M118.274,368.504
		c18.59-3.36-2.45-46.49-19-38C87.854,341.354,105.304,370.844,118.274,368.504z"/>
</g>
</svg>
