<svg xmlns="http://www.w3.org/2000/svg" xmlns:svg="http://www.w3.org/2000/svg" viewBox="0 0 468 468" version="1.0">
	<g id="Area00" fill="#FFF">
		<rect width="100%" height="100%"/>
	</g>
	<g id="Area01" transform="translate(0 468) scale(.078 -.078)">
		<path d="m3107 5882c-10-10-17-28-17-39 0-12-13-61-29-111-16-49-34-108-41-130-6-23-15-42-20-42-6 0-10-7-10-15s-6-34-14-57c-7-24-21-69-31-100-18-63-14-60-160-121-108-45-189-79-255-107-147-64-188-80-197-80-6 0-27-11-47-25-20-13-73-43-119-67-107-54-293-177-383-252-35-29-44-45-57-98-8-35-23-88-32-118-30-95-29-137 5-276l31-129 102-80c56-44 115-89 132-100 35-24 175-105 181-105 2 0 34-21 71-46 36-25 92-58 124-74s60-34 64-40c3-6 24-19 46-30 21-11 39-28 39-37 0-13-35-126-71-228-5-16-22-66-36-110s-39-118-55-165c-51-148-62-194-182-715-65-280-121-521-125-535-6-23-11-25-61-23-30 1-163 5-296 9l-240 7-40-26c-44-27-55-48-80-147-8-36-22-90-30-120-7-30-14-69-14-87 0-17-4-35-10-38-14-9-12-88 3-107 11-14 170-34 352-44 56-3 205-22 233-30 30-9 29-34-11-156-19-57-40-123-46-148-7-25-17-53-22-62-12-24 8-259 28-328 24-80 45-116 115-200 51-60 70-76 95-78 29-3 34 1 49 35 16 39 44 147 63 243 10 56 50 248 96 465 14 66 30 142 35 168 5 27 12 53 15 58 4 5 46 9 94 9 118 0 121-3 93-118-12-48-30-121-41-162s-31-120-46-175c-14-55-35-129-45-165-20-65-40-219-40-304v-45l115-90c63-50 124-91 135-91 12 0 38 19 60 43 30 31 42 56 51 97 6 30 17 78 25 105 29 105 64 268 64 299 0 18 4 36 9 41 9 10 86 331 112 468 7 38 18 75 23 82 7 8 74 25 166 40 236 40 251 42 303 55 26 7 50 16 53 21s35 9 72 9c37 1 85 8 107 16s51 19 65 24 50 18 80 30 69 25 85 30c76 21 205 79 205 92 0 4 7 8 15 8s43 13 77 29c35 16 77 35 94 41 22 8 64 52 138 145 59 74 148 172 198 217 56 51 99 100 114 130 13 25 28 49 34 53 23 14 50 88 65 179 18 116 21 397 3 429-15 29-64 77-77 77-6 0-18 14-27 32-28 55-198 260-223 269-9 4-23 14-30 23s-17 16-22 16-35 20-66 44c-32 24-76 53-98 65s-55 33-74 47c-19 13-46 27-60 30s-42 14-62 25c-20 10-50 19-66 19-17 0-38 9-48 20s-25 20-34 20-41 9-71 20c-30 12-73 28-95 36s-71 26-110 39c-98 34-204 75-233 90-3 2 16 65 58 195 37 113 104 328 129 414 12 38 21 83 21 100 0 18 6 40 14 51 11 17 37 89 86 241 6 17 10 44 10 62 0 17 5 34 10 37 6 3 10 19 10 35s5 32 10 35c6 3 10 24 10 45 0 28 7 46 25 64 14 14 25 37 25 51s4 33 9 43c6 9 17 41 26 69 9 29 24 62 34 74l17 21 275-20c178-14 291-18 323-13 67 11 96 45 95 109 0 63-14 141-26 153-5 5-137 14-294 20-156 5-288 14-293 19-11 11 5 88 34 160 13 30 25 77 28 103 3 40 0 53-19 73-18 19-32 24-75 24-29 0-76-5-104-12l-52-12-43-90c-24-50-58-126-76-169s-37-81-41-83c-4-3-60-13-123-22-102-15-117-15-125-2-15 24-12 46 15 102 14 28 25 60 25 69 0 10 5 21 10 24 18 11 12 172-7 203-43 69-49 72-148 72-76 0-95-3-108-18zm281-826c2-21-4-60-12-87-9-26-16-61-16-78 0-16-4-32-9-35-5-4-21-45-36-94-14-48-35-116-47-152-11-36-26-90-33-120-12-49-37-137-81-285-9-27-19-63-24-80-5-16-16-55-25-85-18-61-27-90-48-167-8-28-18-56-21-62-10-15-44-13-91 5-22 8-48 17-57 21-20 6-24 47-9 85 5 13 17 50 26 83s20 71 25 85c4 14 16 52 25 85 27 94 39 130 48 136 5 3 12 21 17 40 18 70 42 155 52 189 5 19 12 53 15 75s9 44 14 50c5 5 9 19 9 31 0 13 5 26 10 29 6 3 10 26 10 50 0 27 5 45 14 48 13 5 25 37 60 162 32 113 34 114 136 111 45-1 45-1 48-40zm-561-153c8-21-5-79-77-328-17-60-38-135-45-165s-21-80-30-110-22-77-30-105c-39-145-48-172-61-192-19-30-55-29-91 1-32 27-126 76-145 76-7 0-19 9-25 19-7 11-44 35-83 55s-89 50-112 66c-22 17-49 30-58 30-26 0-100 74-100 100 0 13 11 38 25 56s25 37 25 43c0 19 165 179 207 200 23 11 45 25 48 31 4 6 55 35 113 65 59 30 114 59 122 64 41 23 129 61 142 61 9 0 21 7 28 15s24 15 39 15c14 0 33 5 41 10 24 15 60 12 67-7zm41-1479c9-8 28-23 41-33l23-17-16-100c-32-190-55-329-65-384-15-85-250-1092-261-1117-9-21-14-22-82-18-40 2-95 12-123 23-57 21-59 30-31 137 9 33 16 79 16 101 0 28 5 44 15 48 9 3 15 18 15 39 0 18 4 37 9 43 5 5 15 38 21 74 7 36 16 74 21 85 9 19 23 72 99 375 15 63 58 232 95 375s73 284 80 313c19 75 30 85 83 77 24-3 51-13 60-21zm487-203c28-10 66-25 85-33 19-9 62-26 95-38s83-31 110-42c28-11 73-29 100-40 100-40 117-49 168-87 29-21 66-46 82-55 94-53 137-106 209-258 123-260 132-288 116-342-6-23-20-59-30-81-27-61-127-183-168-205-20-11-59-37-87-57-45-34-85-50-270-114-33-11-123-31-200-44s-160-30-185-38c-155-50-155-50-293-41-119 8-132 11-136 28-4 26 40 226 51 226 4 0 8 10 8 23 0 12 11 74 25 137s36 167 50 230c13 63 35 167 49 230 13 63 36 174 51 245 28 138 73 342 80 363 6 17 32 15 90-7z"/>
	</g>
</svg>