<!-- Generator: SVG-Editor, https://petercollingridge.appspot.com/svg-editor/ -->
<svg version="1.1" xmlns="http://www.w3.org/2000/svg" xmlns:xlink="http://www.w3.org/1999/xlink" x="0px" y="0px"
	width="635.642px" height="644px" viewBox="-34.142 -13 635.642 644" xml:space="preserve">
	<g id="Area00" fill="#FFF">
		<rect x="-34.142" y="-13" width="635.642" height="644"/>
	</g>
	<g id="Area02" fill="#000">
		<g>
			<path d="M278 88.102"/>
		</g>
		<path d="M281.244 33.196c3.959 11.145 7.229 25.561 13.039 35.459 2.201 3.752 5.89 8.159 10.141 8.528 5.443 0.474 11.497-4.286 14.97-7.182 4.452-3.712 7.366-7.457 11.106-10.772 -2.381-2.724-4.127-6.039-3.38-11.67 3.471-8.082 17.148-7.21 19.799 0 2.574 7.002-3.165 12.99-10.142 14.363 0.991 11.847-0.326 26.718 10.142 28.726 6.765 1.297 12.346-2.694 17.385-5.386 5.312-2.837 10.622-4.82 14.486-8.079 -3.691-8.223 2.478-16.051 10.624-15.261 12.97 1.257 11.03 24.92-6.761 18.852 -11.636 27.785-22.609 56.186-35.734 82.588 -40.985-7.147-96.444-8.095-137.627-0.449 -2.735-2.687-3.406-6.612-4.829-9.875 -9.848-22.581-20.883-47.425-30.906-70.918 -12.407 1.099-16.769-4.904-14.97-12.119 2.395-9.606 21.188-8.847 20.282 4.04 -0.058 0.813-0.859 2.401-0.483 3.591 0.895 2.829 8.096 5.822 11.59 7.63 5.872 3.039 11.868 6.789 19.316 5.386 10.273-1.935 9.559-16.69 9.658-29.175 -3.156-1.859-6.498-1.586-8.692-3.591 -2.157-1.971-2.867-5.059-2.896-6.732 -0.2-10.955 21.283-14.697 20.764 0 -0.124 3.526-1.581 4.609-3.863 7.63 5.499 5.335 11.491 13.896 18.834 17.505 17.675 8.689 24.986-19.917 28.974-32.766 1.067-3.44 2.765-7.361 2.415-8.977 -0.652-3.014-5.612-4.328-6.761-8.08 -4.485-14.644 17.834-16.758 19.799-5.386C288.719 28.006 284.872 28.732 281.244 33.196z"/>
	</g>
	<g id="Area01" fill="#000">
		<path d="M0.7 0.7c-1.1 1-0.8 33 0.4 44.399 5.8 57.8 31.1 111 77.6 163.9 27.2 30.899 91.9 89.3 151.8 136.899 7.2 5.7 13.6 10.9 14.3 11.601 1.1 1-2.2 3.699-17 14.199 -27.4 19.4-53.5 37.2-84.8 57.801L115 448l-3.9-1.9c-5.6-2.9-11.6-10.2-20.5-24.9 -9.2-15.3-13.4-20.5-18.7-23.199 -4.9-2.5-12.1-2.5-17.6-0.101l-4.2 1.9 1.3 5.399c2.4 10.2 5.4 14.601 20.2 29.301C82.1 444.9 86.4 449.9 88.3 454c4.7 9.899 4.7 9.8-3 17.1 -3.8 3.5-12.4 10.7-19.2 15.9C18.6 523.4 10.4 532.4 3.4 555.5 1.2 562.9 0.7 566.6 0.6 576 0.5 588.9 1.5 593.4 6.1 600.3c2.2 3.399 4.6 5.399 8.7 7.399 10.1 4.9 24.3 3.4 30.4-3.399 2.6-2.9 4.8-9.801 6.4-20.8 2.2-14.7 4.1-22.2 7.1-27.601C61.8 550 82.5 529.5 93 521.8c14.1-10.3 21.6-14.2 28.5-14.601 11.8-0.8 19 5.7 30.1 26.801 10.5 20.1 15.7 25 26.9 25 5.5 0 5.6 0 7.2-3.7 5.1-12.3 3.1-16.8-16.1-35.8 -15.5-15.4-19.3-20.601-20.3-28.4 -0.5-3.6-0.4-3.7 6.8-8.5 22.6-15 87.6-61.3 116.8-83.3 6.9-5.2 13-9.2 13.7-8.9 0.601 0.2 10 7 20.801 15.101 25.1 18.6 73.699 53.3 97.5 69.5l18.3 12.5 -0.5 3.699c-1 7.9-4.601 12.9-20.2 28.301 -12.1 11.899-15.6 16-17 19.699 -1.9 5.301-1.7 10 0.8 16C387.9 559 388 559 393.5 559c11.2 0 16.8-5.101 27-24.7C427.9 520 434 512 440.1 509c5-2.601 13-2.601 18.7 0 10.4 4.699 29.8 19.6 43.3 33.3 12.7 12.8 14.5 16.8 17.9 38.3 1 6.6 2.4 14 3 16.399 3.5 12.9 20.1 17.7 35 10.2 10.1-5.1 14.8-16.7 13.7-33.699 -1-15.601-6.4-31.2-14.4-41.7 -7.899-10.3-17.5-18.8-46.5-41.101 -9.1-7-19.8-15.699-23.8-19.399 -8-7.5-8-7.3-3.3-17.3 1.899-4.101 6.2-9.101 16.7-19.5 14.8-14.7 17.8-19.101 20.199-29.301l1.301-5.399 -4.2-1.9C512.2 395.5 505 395.5 500.1 398c-5.3 2.6-9.199 7.5-18.6 23 -9 14.899-15 22.199-20.6 25.1L457.1 448l-26.3-17.301c-30.5-20-60.6-40.6-86.6-59C329.4 361.3 326.1 358.5 327.2 357.5c0.7-0.601 7.399-6.101 14.8-12 19.3-15.5 39.9-32.801 67.5-56.601 75.8-65.1 110.9-105.5 136-156.399 13.8-27.8 22.6-58.4 25.5-88.5 1.4-14.4 1-43.2-0.6-43.7 -0.7-0.2-4.5 6.1-8.7 13.9C528.9 77.3 484.8 130 437.5 162.5c-5 3.5-5.5 4.1-5.9 8.399C427.4 206.7 413.9 226.4 366 266.1c-26.2 21.7-73.7 59.3-78.8 62.3 -1.5 0.9-12.6-7.3-47.2-34.8 -56.1-44.7-72-59.399-83.8-77.5 -8.7-13.2-15-30.899-15.3-42.6 0-2.2-0.3-4.7-0.7-5.601 -0.4-0.899-5.4-5.199-11.2-9.399C80.6 122.6 38.7 71.1 8 9.9 3.2 0.5 2.2-0.8 0.7 0.7zM24 51.5C34.7 69 47.6 86.5 62.3 103.9 74.3 118 105.7 149 121.2 162l12.6 10.5 1.2 7c4.5 26.3 17.6 47.5 43.3 70.3 27.9 24.7 80.3 66.8 118.2 95.1 37.2 27.9 91.4 66.3 110.2 78.2 13.1 8.3 21.2 14.6 22.5 17.5 0.6 1.3 0.899 2.6 0.6 2.9 -0.2 0.199-3.2 0-6.6-0.601 -4.4-0.8-7-0.8-9.3 0 -2.9 1-3.7 0.601-15.2-7.1C251.5 337.3 159.1 258.9 94.2 177.5 73.1 151 73 152.1 94.1 180c38.2 50.6 91.6 103.1 155.6 152.8 34.3 26.6 67.7 50.3 123.399 87.5 36.9 24.7 37.7 25.3 38.301 29 0.399 2 2.399 8.2 4.6 13.6 3.7 9.2 4.9 14.101 3.4 14.101 -1.801 0-92.7-64.9-130.9-93.5C188.5 308.699 109.6 238.6 70.8 189.9 31.9 141.1 9.6 86.4 7.4 34.5l-0.6-13L13.2 33C16.8 39.3 21.6 47.6 24 51.5zM564.7 34.7c-1.5 31-10.3 64.199-25.101 94.8C524.6 160.4 506.9 185.4 476.8 218 448.9 248.3 384.9 305 332.2 346.3l-11.2 8.8 -6.6-4.8c-3.7-2.601-6.601-5.101-6.601-5.601 0.101-0.399 6.601-5.8 14.4-11.899C379.1 288.6 427.1 242.9 463.1 199c9.5-11.5 24.5-31.5 28.801-38l2.199-3.5 -2.8 3.399c-1.5 1.9-7.1 8.9-12.399 15.5C444.9 219 401.6 262.5 351.5 304.6c-19 15.9-46.2 37.4-47.5 37.4s-12-7.9-12-8.9c0.1-0.3 3.1-2.9 6.8-5.6 28.101-21.101 89.7-72.2 103.4-85.7 21.3-21 31.2-39.3 35.399-65.3 0.5-3.601 1.801-5 13.101-14.5 26.2-22 54.8-51.601 74.2-76.8C535.3 71.6 550.3 48.5 558 34.2c3.6-6.7 6.7-12.2 6.9-12.2C565.1 22 565 27.7 564.7 34.7zM257.4 367.4c3.2 2.4 5.6 4.8 5.5 5.3 -0.5 1.601-36.4 27.101-78.5 55.601 -22.4 15.2-23.3 15.6-26.3 14.6 -2.3-0.8-4.9-0.8-9.3 0 -3.4 0.601-6.4 0.8-6.6 0.601 -0.3-0.301 0-1.601 0.6-2.9 1.3-2.9 9.4-9.2 22.7-17.6 9.6-6.101 55.4-38 75.9-52.801 5.4-4 10-7.199 10.1-7.199S254.3 365 257.4 367.4zM274 380.199c3.8 2.9 6.6 5.5 6.2 5.9C275 391 154.2 477 152.6 477c-1.5 0-0.3-4.9 3.4-14.101 2.2-5.399 4.2-11.6 4.6-13.6 0.6-3.7 1.4-4.3 29.2-22.8 15.7-10.5 39.2-26.301 52.1-35.2 13-9 23.9-16.3 24.4-16.3C266.7 375 270.2 377.3 274 380.199zM73.7 408.3c10.4 20.3 21.8 33.3 35 39.899 7.4 3.7 9.1 4.101 17.5 4.601 8.8 0.399 19.3-1.2 27.2-4.4 2.2-0.899 2 0.2-3.1 12.601 -7.2 17.899-7.6 19.3-7.7 27 0 11.6 3.3 17.1 20.4 34.199 14.5 14.4 19.5 21.7 18.8 27.5 -0.3 2.601-0.6 2.801-5 2.7 -6.2 0-9.8-3.3-13.3-12.2 -2.9-7.3-16.8-24.6-27.8-34.8l-6.1-5.7L119 500.3c-5.8 0.3-15.4 1.3-21.3 2.3 -5.9 0.9-11.1 1.4-11.4 1 -0.9-0.9 1.4-8 6.5-19.6 3.7-8.5 4.7-11.9 5-17.7 0.4-6.5 0.1-7.9-2.7-13.9 -2.6-5.5-5.8-9.399-18.1-22 -11-11.1-15.7-16.7-17.5-20.6 -4-8.7-3.6-9.601 5-9.7l5-0.1L73.7 408.3zM513.8 400.8c0.9 0.7 0.4 2.7-2.3 8.8 -3.2 6.9-5 9.2-14.4 18.4C484.1 440.699 479.9 445.9 476.4 453.4c-2.2 4.9-2.601 6.8-2.2 12.9 0.3 6 1.2 8.899 5 17.3 4.7 10.2 7.6 19 6.5 20.1 -0.4 0.301-5.5-0.199-11.4-1.1 -5.899-1-15.5-2-21.3-2.3l-10.5-0.5 -5.8 5.2c-10.101 9.1-25.4 28.199-27.8 34.6 -1.2 3.1-3.601 7.3-5.4 9.2 -2.8 3.1-3.8 3.6-8.1 3.6 -4.601 0.101-4.9-0.1-5.2-2.7 -0.7-6.1 4.2-13.399 18.7-27.6 17.199-16.9 20.5-22.4 20.5-34.1 -0.101-7.801-0.601-9.7-7.7-27 -5.101-12.301-5.3-13.5-3.101-12.601 7.9 3.2 18.4 4.8 27.2 4.4 8.4-0.5 10.101-0.9 17.601-4.601 13.399-6.699 25.899-21.3 36.199-42.5L502.4 400h5.1C510.2 400 513.1 400.4 513.8 400.8zM86.7 481.5c-0.3 1.8-1.9 6.5-3.6 10.3 -3.2 7.2-3.9 12.899-2.1 16.3 1.2 2.2 7.4 2.6 14.9 0.8 2.4-0.5 4.6-0.8 4.8-0.6 1.1 1.1-10.5 11.1-21.6 18.7 -14.8 10.1-22.1 17.1-25.9 24.8 -3.6 7-3.7 7.399-6.1 24.7 -2.3 16.3-4 21.8-8.3 26.199 -3.8 4-8 4.7-14.7 2.7C6.8 600.3-0.5 576.9 8.4 555c6-14.7 20.3-30 50.6-54.2 10.7-8.5 21.1-17.3 23-19.5C86 476.8 87.5 476.8 86.7 481.5zM517.4 505.1c35.5 28.4 47.899 44.7 49.3 64.9 1.399 19.399-8.101 34.399-22.5 35.8 -10.101 0.899-15-5.301-17.8-23 -4.7-29.7-5.601-32.101-15.301-41.9 -3.699-3.6-12-10.2-18.6-14.7C480.2 517.9 470.2 509 473.1 509c0.9 0 4.101 0.5 7.2 1.1 7.2 1.5 10.101 0.7 11.7-3 1.5-3.6 0.7-7.4-3.1-16.3 -1.601-3.601-2.9-8.101-2.9-9.9v-3.3l6.8 6.5C496.5 487.699 507.6 497.199 517.4 505.1zM123.5 462c-4.9 1-10.2 1.899-11.7 1.899 -2.3 0.101-2.8 0.601-3.4 3.8 -0.4 2.101-1.8 6.5-3.2 9.801 -1.4 3.3-3.1 8-3.8 10.399l-1.4 4.3 6.3-0.6c3.4-0.3 9.7-0.9 14-1.2l7.8-0.7 3-5.899c3-5.9 8.9-21.101 8.9-22.9C140 459.5 133.6 460 123.5 462zM135 465.699c0 1.601-1.6 5.9-3.5 9.7 -1.9 3.9-3.5 7.7-3.5 8.7 0 1.9-2.7 2.9-8.5 2.9 -2.2 0-6 0.5-8.4 1.1 -7.3 1.7-7.7-1.9-1.3-14.7l3.5-7.2 7.6-0.699c4.2-0.4 8.5-1.101 9.6-1.5C134 462.5 135 462.9 135 465.699zM432 460.9c0 1.8 5.9 17 8.9 22.9l3 5.899 7.8 0.7c4.3 0.3 10.6 0.9 14 1.2l6.3 0.6 -1.4-4.3c-0.699-2.399-2.399-7.1-3.8-10.399 -1.399-3.301-2.8-7.7-3.2-9.801C463 464.8 462.5 464 460.7 464c-1.2 0-6.8-0.9-12.5-2C437 459.8 432 459.5 432 460.9zM450.2 465.3l8.7 1.1 4.1 8.8c3.1 6.5 4 9.5 3.6 11.4 -0.6 2.1-1.1 2.5-2.899 2 -1.2-0.3-4.7-0.8-7.7-1.1 -10.6-1.101-12-1.5-12-3.301 0-1-1.6-5-3.5-9.1 -1.9-4-3.5-8.4-3.5-9.8 0-2.2 0.3-2.4 2.3-1.8C440.5 463.9 445.4 464.699 450.2 465.3zM21.5 561.1c-2.3 2.1-4 4.8-5 8.2 -3.9 13.2 0.5 24.8 9.9 26.399 3.1 0.5 4.1 0.2 6.6-2.2 3.7-3.6 5.3-8.199 5.3-15.999 0-7.9-2.9-14.7-7.5-17.5C26.4 557.4 25.7 557.4 21.5 561.1zM31.7 565.6c4.1 6.4 3.5 18.8-1.2 24.2 -2.3 2.6-2.5 2.6-5.2 1.199 -6.4-3.499-8.1-14.699-3.4-23.699C24.8 561.5 28.6 560.9 31.7 565.6zM541.2 560c-8.7 5.3-10.101 25-2.3 33.3 2.199 2.5 3.199 2.8 6.5 2.399 4.699-0.7 9.199-4.8 10.6-9.6 2.5-9 0-20.1-5.5-25C546.3 557.4 545.6 557.4 541.2 560zM549.7 567.5c2.7 4.899 3.2 15 0.8 19.5 -1.8 3.499-5.8 4.8-8.2 2.899 -5.5-4.6-5.8-19.399-0.5-25.2C544.2 562 547.2 563 549.7 567.5z"/>
	</g>
</svg>