<?xml version="1.0"?>
<svg xmlns:rdf="http://www.w3.org/1999/02/22-rdf-syntax-ns#" xmlns="http://www.w3.org/2000/svg" xmlns:cc="http://creativecommons.org/ns#" xmlns:dc="http://purl.org/dc/elements/1.1/" xmlns:svg="http://www.w3.org/2000/svg" id="svg3915" viewBox="0 0 153 153" version="1.1">
	<g id="Area00" fill="#FFF">
		<rect width="100%" height="100%"/>
	</g>
	<g id="Area01" transform="translate(0 -899.36) matrix(.99371 0 0 .99352 -468.96 705.98)">
		<path id="path3810" d="m548.94 196.18c-41.676 0-75.48 33.804-75.48 75.48s33.804 75.48 75.48 75.48 75.451-33.804 75.451-75.48-33.774-75.48-75.451-75.48zm0 0.95019c41.163 0 74.5 33.367 74.5 74.53s-33.338 74.53-74.5 74.53c-41.163 0-74.53-33.367-74.53-74.53s33.367-74.53 74.53-74.53z"/>
	</g>
	<g id="Area02" transform="translate(0 -899.36) matrix(.99371 0 0 .99352 -468.96 705.98)" stroke="#000">
		<path id="path3017" d="m548.94 196.66c-41.424-0.002-75 33.58-75 75 0 40.767 32.532 73.898 72.875 74.938-19.98-0.99982-35.75-17.374-35.75-37.438 0-20.711 16.789-37.5 37.688-37.5 20.898 0 37.688-16.789 37.688-37.5s-16.785-37.498-37.5-37.5zm0 24.688c7.0737 0 12.812 5.7388 12.812 12.812 0 7.0737-5.7388 12.812-12.812 12.812-7.0737 0-12.812-5.7388-12.812-12.812 0-7.0737 5.7388-12.812 12.812-12.812z"/>
	</g>
	<g id="Area03" transform="translate(0 -899.36) matrix(.99371 0 0 .99352 -468.96 705.98)">
		<path id="path3823" d="m562.53 310c0 7.0761-5.7364 12.812-12.813 12.812-7.0761 0-12.812-5.7363-12.812-12.812 0-7.0761 5.7364-12.812 12.812-12.812 7.0762 0 12.813 5.7363 12.813 12.812z"/>
	</g>
</svg>